<?xml version="1.0" encoding="UTF-8"?>
<svg version="1.1" xmlns="http://www.w3.org/2000/svg" width="100" height="100">
<path d="M0 0 C0 0.66 0 1.32 0 2 C1.5159375 2.0928125 1.5159375 2.0928125 3.0625 2.1875 C10.41273657 3.28410788 14.68719655 8.43399224 18.93359375 14.1328125 C20 16 20 16 20 19 C20.66 19 21.32 19 22 19 C25.71747383 26.50133113 26.47338986 32.68937804 26 41 C26 41.66 26 42.32 26 43 C26.66 43.33 27.32 43.66 28 44 C28 44.66 28 45.32 28 46 C28.66 46 29.32 46 30 46 C30.72497964 51.64368769 30.93874288 56.36754273 30 62 C30.31582031 62.62132813 30.63164063 63.24265625 30.95703125 63.8828125 C32.13772184 66.27957017 32.26818209 67.84541448 32.25 70.5 C32.25773437 71.62921875 32.25773437 71.62921875 32.265625 72.78125 C31.96055729 75.32946266 31.42872424 76.8659562 30 79 C27.16371028 80.89684354 24.98123242 81.15805936 21.625 81.1875 C18.84507152 81.43238766 17.45471317 81.58978144 15.36328125 83.4765625 C14.40601862 84.70920205 13.46468567 85.95436527 12.5390625 87.2109375 C9.98895033 90.17528109 6.66351038 91.74237703 3 93 C2.01 93 1.02 93 0 93 C0 93.66 0 94.32 0 95 C-12.62744199 98.34343618 -23.15881136 97.41725448 -34.76953125 91.296875 C-37.41880543 89.75649141 -39.7324659 88.06139464 -42 86 C-42.598125 85.46375 -43.19625 84.9275 -43.8125 84.375 C-45 83 -45 83 -45 81 C-45.59167969 81.05800781 -46.18335938 81.11601563 -46.79296875 81.17578125 C-51.03367389 81.4179096 -53.36332602 81.3898004 -57.0625 79.125 C-60.69679565 73.26323282 -59.18280197 66.64684674 -58.21875 60.0859375 C-57.86975981 56.7580668 -57.97974469 53.44280804 -58.0625 50.1015625 C-58 48 -58 48 -57 46 C-56.34 46 -55.68 46 -55 46 C-54.42376121 42.47053741 -53.99236394 39.20617364 -54.125 35.625 C-53.90945428 29.37417421 -51.40064351 23.72461144 -49 18 C-48.34 18 -47.68 18 -47 18 C-46.7834375 17.071875 -46.7834375 17.071875 -46.5625 16.125 C-46 14 -46 14 -45 12 C-44.34 12 -43.68 12 -43 12 C-42.9071875 11.071875 -42.9071875 11.071875 -42.8125 10.125 C-42 8 -42 8 -39.4375 6.75 C-38.633125 6.5025 -37.82875 6.255 -37 6 C-37 5.34 -37 4.68 -37 4 C-24.03452715 -2.0382935 -13.85770532 -5.62341665 0 0 Z " fill="#B15219" transform="translate(64,3)"/>
<path d="M0 0 C0.86625 0.70125 1.7325 1.4025 2.625 2.125 C4.27119113 2.84073527 5.93228055 3.5275696 7.625 4.125 C7.295 5.445 6.965 6.765 6.625 8.125 C7.615 8.455 8.605 8.785 9.625 9.125 C10.10343559 16.74009976 9.47924916 22.62509303 6.58203125 29.69921875 C5.48618283 32.47685904 4.94556722 35.15975323 4.625 38.125 C5.285 36.805 5.945 35.485 6.625 34.125 C7.285 34.125 7.945 34.125 8.625 34.125 C8.82996094 33.51011719 9.03492188 32.89523438 9.24609375 32.26171875 C10.37239583 28.8828125 11.49869792 25.50390625 12.625 22.125 C12.84951458 19.89925665 13.03282878 17.66918481 13.1875 15.4375 C13.27128906 14.25800781 13.35507813 13.07851563 13.44140625 11.86328125 C13.53228516 10.50783203 13.53228516 10.50783203 13.625 9.125 C17.5852291 10.44507637 19.517281 12.5952928 21.9375 15.9375 C22.95001576 19.15914105 22.25296564 21.85957867 21.625 25.125 C22.12 23.64 22.12 23.64 22.625 22.125 C23.285 22.125 23.945 22.125 24.625 22.125 C26.88864287 25.73604933 26.89308674 28.79483266 26.875 33 C26.88273437 34.79050781 26.88273437 34.79050781 26.890625 36.6171875 C26.62550599 40.1183179 25.80484246 42.838296 24.625 46.125 C24.625 47.115 24.625 48.105 24.625 49.125 C26.275 49.125 27.925 49.125 29.625 49.125 C29.295 50.115 28.965 51.105 28.625 52.125 C27.965 51.795 27.305 51.465 26.625 51.125 C26.934375 52.1459375 26.934375 52.1459375 27.25 53.1875 C27.72563829 56.91333331 26.80169149 59.59492554 25.625 63.125 C27.275 63.785 28.925 64.445 30.625 65.125 C30.625 67.435 30.625 69.745 30.625 72.125 C29.965 72.125 29.305 72.125 28.625 72.125 C28.625 70.475 28.625 68.825 28.625 67.125 C27.97917969 66.93550781 27.33335938 66.74601562 26.66796875 66.55078125 C24.625 65.125 24.625 65.125 24.05078125 62.04296875 C23.99470703 60.19638672 23.99470703 60.19638672 23.9375 58.3125 C23.78318802 54.12844087 23.58155848 50.20787155 22.625 46.125 C21.965 46.125 21.305 46.125 20.625 46.125 C20.625 49.095 20.625 52.065 20.625 55.125 C19.635 54.135 18.645 53.145 17.625 52.125 C17.625 54.105 17.625 56.085 17.625 58.125 C16.965 58.125 16.305 58.125 15.625 58.125 C12.77695093 61.24005367 10.99187222 64.13828937 9.625 68.125 C8.635 68.125 7.645 68.125 6.625 68.125 C7.285 64.495 7.945 60.865 8.625 57.125 C7.03171875 57.17140625 5.4384375 57.2178125 3.796875 57.265625 C-17.11007431 57.6871892 -17.11007431 57.6871892 -27.375 53.125 C-27.705 56.425 -28.035 59.725 -28.375 63.125 C-30.375 62.125 -32.375 61.125 -34.375 60.125 C-34.96855614 57.47639573 -35.11709269 54.83302678 -35.375 52.125 C-37.70575929 53.08365509 -37.70575929 53.08365509 -39.375 56.125 C-39.375 52.825 -39.375 49.525 -39.375 46.125 C-40.035 46.125 -40.695 46.125 -41.375 46.125 C-41.375 46.785 -41.375 47.445 -41.375 48.125 C-42.035 47.795 -42.695 47.465 -43.375 47.125 C-43.375 45.145 -43.375 43.165 -43.375 41.125 C-44.035 41.125 -44.695 41.125 -45.375 41.125 C-47.21504918 37.44490163 -46.74565648 33.15109623 -46.375 29.125 C-45 26.4375 -45 26.4375 -43.375 24.125 C-43.045 22.92875 -42.715 21.7325 -42.375 20.5 C-41.41354095 17.25507572 -40.88491044 16.19840428 -38.375 14.125 C-38.045 13.465 -37.715 12.805 -37.375 12.125 C-36.715 12.125 -36.055 12.125 -35.375 12.125 C-35.1275 11.526875 -34.88 10.92875 -34.625 10.3125 C-31.26689752 4.43582065 -23.12490871 1.09381351 -16.9921875 -1.1796875 C-10.96540273 -2.7808333 -5.51060052 -3.06144473 0 0 Z " fill="#483024" transform="translate(59.375,3.875)"/>
<path d="M0 0 C1.2065625 0.0309375 1.2065625 0.0309375 2.4375 0.0625 C4.58086161 3.5391338 4.65027626 6.27479195 4.5625 10.3125 C4.54445312 11.39015625 4.52640625 12.4678125 4.5078125 13.578125 C4.48460937 14.39796875 4.46140625 15.2178125 4.4375 16.0625 C5.0975 15.7325 5.7575 15.4025 6.4375 15.0625 C7.12479254 12.94403715 7.12479254 12.94403715 7.5625 10.5 C7.73007812 9.67371094 7.89765625 8.84742188 8.0703125 7.99609375 C8.19148438 7.35800781 8.31265625 6.71992188 8.4375 6.0625 C9.7575 6.0625 11.0775 6.0625 12.4375 6.0625 C13.5348994 11.50728934 13.18589308 15.35626085 11.6875 20.6875 C11.34203125 21.95851563 10.9965625 23.22953125 10.640625 24.5390625 C9.04562717 29.21012757 7.10753455 32.74199255 3.4375 36.0625 C3.96859375 35.85753906 4.4996875 35.65257812 5.046875 35.44140625 C5.75328125 35.17199219 6.4596875 34.90257812 7.1875 34.625 C7.88359375 34.35816406 8.5796875 34.09132812 9.296875 33.81640625 C13.95681473 32.1752231 18.54776838 31.63296869 23.4375 31.0625 C23.9325 29.5775 23.9325 29.5775 24.4375 28.0625 C25.4275 28.0625 26.4175 28.0625 27.4375 28.0625 C27.4375 27.4025 27.4375 26.7425 27.4375 26.0625 C29.0875 25.4025 30.7375 24.7425 32.4375 24.0625 C33.4275 28.5175 33.4275 28.5175 34.4375 33.0625 C36.0875 33.0625 37.7375 33.0625 39.4375 33.0625 C39.1075 34.0525 38.7775 35.0425 38.4375 36.0625 C37.7775 35.7325 37.1175 35.4025 36.4375 35.0625 C36.746875 36.0834375 36.746875 36.0834375 37.0625 37.125 C37.53813829 40.85083331 36.61419149 43.53242554 35.4375 47.0625 C37.0875 47.7225 38.7375 48.3825 40.4375 49.0625 C40.4375 51.3725 40.4375 53.6825 40.4375 56.0625 C39.7775 56.0625 39.1175 56.0625 38.4375 56.0625 C38.4375 54.4125 38.4375 52.7625 38.4375 51.0625 C37.79167969 50.87300781 37.14585938 50.68351562 36.48046875 50.48828125 C34.4375 49.0625 34.4375 49.0625 33.86328125 45.98046875 C33.80720703 44.13388672 33.80720703 44.13388672 33.75 42.25 C33.59568802 38.06594087 33.39405848 34.14537155 32.4375 30.0625 C31.7775 30.0625 31.1175 30.0625 30.4375 30.0625 C30.4375 33.0325 30.4375 36.0025 30.4375 39.0625 C29.4475 38.0725 28.4575 37.0825 27.4375 36.0625 C27.4375 38.0425 27.4375 40.0225 27.4375 42.0625 C26.7775 42.0625 26.1175 42.0625 25.4375 42.0625 C22.58945093 45.17755367 20.80437222 48.07578937 19.4375 52.0625 C18.4475 52.0625 17.4575 52.0625 16.4375 52.0625 C17.0975 48.4325 17.7575 44.8025 18.4375 41.0625 C16.84421875 41.10890625 15.2509375 41.1553125 13.609375 41.203125 C-7.29757431 41.6246892 -7.29757431 41.6246892 -17.5625 37.0625 C-17.8925 40.3625 -18.2225 43.6625 -18.5625 47.0625 C-20.5625 46.0625 -22.5625 45.0625 -24.5625 44.0625 C-25.15605614 41.41389573 -25.30459269 38.77052678 -25.5625 36.0625 C-27.89325929 37.02115509 -27.89325929 37.02115509 -29.5625 40.0625 C-29.5625 36.7625 -29.5625 33.4625 -29.5625 30.0625 C-30.2225 30.0625 -30.8825 30.0625 -31.5625 30.0625 C-31.5625 30.7225 -31.5625 31.3825 -31.5625 32.0625 C-32.2225 31.7325 -32.8825 31.4025 -33.5625 31.0625 C-34.15605614 28.41389573 -34.30459269 25.77052678 -34.5625 23.0625 C-33.5725 22.7325 -32.5825 22.4025 -31.5625 22.0625 C-30.18687146 23.35215176 -28.85483607 24.68939293 -27.5625 26.0625 C-27.5625 26.7225 -27.5625 27.3825 -27.5625 28.0625 C-26.4075 28.206875 -25.2525 28.35125 -24.0625 28.5 C-19.89583333 29.02083333 -15.72916667 29.54166667 -11.5625 30.0625 C-11.5625 30.7225 -11.5625 31.3825 -11.5625 32.0625 C-10.0775 32.5575 -10.0775 32.5575 -8.5625 33.0625 C-8.5625 34.0525 -8.5625 35.0425 -8.5625 36.0625 C-7.2425 36.0625 -5.9225 36.0625 -4.5625 36.0625 C-4.8925 34.7425 -5.2225 33.4225 -5.5625 32.0625 C-4.9025 32.0625 -4.2425 32.0625 -3.5625 32.0625 C-3.5625 31.4025 -3.5625 30.7425 -3.5625 30.0625 C-4.16578125 30.01996094 -4.7690625 29.97742188 -5.390625 29.93359375 C-7.5625 29.0625 -7.5625 29.0625 -9.046875 26.47265625 C-11.70198949 19.44971453 -13.32667468 13.58537518 -12.5625 6.0625 C-9.67812221 7.35549694 -7.69030579 8.72191363 -5.5625 11.0625 C-5.42972656 10.35222656 -5.29695313 9.64195313 -5.16015625 8.91015625 C-4.98355469 7.99105469 -4.80695312 7.07195313 -4.625 6.125 C-4.36396484 4.75021484 -4.36396484 4.75021484 -4.09765625 3.34765625 C-3.35353878 0.17022035 -3.31733379 0.08091058 0 0 Z " fill="#181212" transform="translate(49.5625,19.9375)"/>
<path d="M0 0 C0 0.66 0 1.32 0 2 C1.5159375 2.0928125 1.5159375 2.0928125 3.0625 2.1875 C10.41273657 3.28410788 14.68719655 8.43399224 18.93359375 14.1328125 C20 16 20 16 20 19 C20.66 19 21.32 19 22 19 C25.71747383 26.50133113 26.47338986 32.68937804 26 41 C26 41.66 26 42.32 26 43 C26.66 43.33 27.32 43.66 28 44 C28 44.66 28 45.32 28 46 C28.66 46 29.32 46 30 46 C30.72497964 51.64368769 30.93874288 56.36754273 30 62 C30.31582031 62.62132813 30.63164063 63.24265625 30.95703125 63.8828125 C32.13772184 66.27957017 32.26818209 67.84541448 32.25 70.5 C32.25773437 71.62921875 32.25773437 71.62921875 32.265625 72.78125 C31.96055729 75.32946266 31.42872424 76.8659562 30 79 C27.16371028 80.89684354 24.98123242 81.15805936 21.625 81.1875 C18.84507152 81.43238766 17.45471317 81.58978144 15.36328125 83.4765625 C14.40601862 84.70920205 13.46468567 85.95436527 12.5390625 87.2109375 C9.98895033 90.17528109 6.66351038 91.74237703 3 93 C2.01 93 1.02 93 0 93 C0 93.66 0 94.32 0 95 C-12.62744199 98.34343618 -23.15881136 97.41725448 -34.76953125 91.296875 C-37.41880543 89.75649141 -39.7324659 88.06139464 -42 86 C-42.598125 85.46375 -43.19625 84.9275 -43.8125 84.375 C-45 83 -45 83 -45 81 C-45.59167969 81.05800781 -46.18335938 81.11601563 -46.79296875 81.17578125 C-51.03367389 81.4179096 -53.36332602 81.3898004 -57.0625 79.125 C-60.69679565 73.26323282 -59.18280197 66.64684674 -58.21875 60.0859375 C-57.86975981 56.7580668 -57.97974469 53.44280804 -58.0625 50.1015625 C-58 48 -58 48 -57 46 C-56.34 46 -55.68 46 -55 46 C-54.42376121 42.47053741 -53.99236394 39.20617364 -54.125 35.625 C-53.90945428 29.37417421 -51.40064351 23.72461144 -49 18 C-48.34 18 -47.68 18 -47 18 C-46.7834375 17.071875 -46.7834375 17.071875 -46.5625 16.125 C-46 14 -46 14 -45 12 C-44.34 12 -43.68 12 -43 12 C-42.9071875 11.071875 -42.9071875 11.071875 -42.8125 10.125 C-42 8 -42 8 -39.4375 6.75 C-38.633125 6.5025 -37.82875 6.255 -37 6 C-37 5.34 -37 4.68 -37 4 C-24.03452715 -2.0382935 -13.85770532 -5.62341665 0 0 Z M-39 10 C-39.33 10.99 -39.66 11.98 -40 13 C-40.66 13 -41.32 13 -42 13 C-42.28875 13.639375 -42.5775 14.27875 -42.875 14.9375 C-44 17 -44 17 -46 18 C-46.83623351 20.0137458 -46.83623351 20.0137458 -47.5 22.375 C-48.41441035 25.42634757 -49.19642993 27.2946449 -51 30 C-51.27908997 32.44679185 -51.27908997 32.44679185 -51.1875 35.0625 C-51.18105469 35.94035156 -51.17460938 36.81820312 -51.16796875 37.72265625 C-51.14279132 40.03125991 -51.14279132 40.03125991 -50 42 C-49.34 42 -48.68 42 -48 42 C-48 43.32 -48 44.64 -48 46 C-48.969375 45.979375 -49.93875 45.95875 -50.9375 45.9375 C-53.87465895 45.64381501 -53.87465895 45.64381501 -55 47 C-55.06033192 50.37104631 -55.02017057 53.72729477 -54.9609375 57.09765625 C-54.92546877 60.34304525 -54.96548101 62.89644304 -56 66 C-56.11659598 67.49676706 -56.17498959 68.99875061 -56.1875 70.5 C-56.20167969 71.2734375 -56.21585938 72.046875 -56.23046875 72.84375 C-56.13661528 75.29680056 -56.13661528 75.29680056 -54 78 C-51.56306689 78.36416047 -51.56306689 78.36416047 -48.875 78.1875 C-47.96492188 78.16042969 -47.05484375 78.13335937 -46.1171875 78.10546875 C-45.41851562 78.07066406 -44.71984375 78.03585938 -44 78 C-43.7525 78.5775 -43.505 79.155 -43.25 79.75 C-40.64713142 84.43516344 -37.26403516 86.6223845 -32.4375 88.75 C-31.48746094 89.17796875 -30.53742187 89.6059375 -29.55859375 90.046875 C-26.98651385 91.17454219 -26.98651385 91.17454219 -24 91 C-24 91.66 -24 92.32 -24 93 C-13.46645306 95.10670939 -4.36812723 94.23155157 5 89 C5 88.34 5 87.68 5 87 C5.59425781 86.91878906 6.18851563 86.83757812 6.80078125 86.75390625 C9.6688017 85.7707305 10.44189467 84.38134746 12.1875 81.9375 C15.32897236 78.11221577 15.32897236 78.11221577 18.3125 77.61328125 C19.86873271 77.70286701 21.42385463 77.81534205 22.9765625 77.953125 C25.20362043 78.18187332 25.20362043 78.18187332 27.5625 76.5 C29.68468232 72.80924814 29.34119548 70.230824 29 66 C28.67 65.34 28.34 64.68 28 64 C28.00735407 60.82672045 28.07689115 57.6679576 28.21484375 54.49804688 C28.31932383 50.53487091 28.31932383 50.53487091 26.66015625 47.0390625 C24.38401228 45.61446416 22.62854395 45.78687481 20 46 C20.32484375 45.32066406 20.6496875 44.64132813 20.984375 43.94140625 C22.18594017 40.46148865 22.26572663 37.61360014 22.25 33.9375 C22.25515625 32.72964844 22.2603125 31.52179687 22.265625 30.27734375 C22.01877749 27.2316811 21.60255975 25.550105 20 23 C19.34 23 18.68 23 18 23 C17.505 24.485 17.505 24.485 17 26 C17.20625 24.9275 17.4125 23.855 17.625 22.75 C18.11739544 18.44351562 18.11739544 18.44351562 16 15 C12.85737685 11.63653823 12.85737685 11.63653823 9 10 C8.97421875 10.82242187 8.9484375 11.64484375 8.921875 12.4921875 C8.57538738 19.31169378 7.70031658 24.85447179 4.83984375 31.07421875 C3.86675145 32.95538449 3.86675145 32.95538449 4 35 C3.34 35 2.68 35 2 35 C1.34 35.99 0.68 36.98 0 38 C0.64539872 35.89569999 1.29133376 33.79156446 1.9375 31.6875 C2.29714844 30.51574219 2.65679687 29.34398437 3.02734375 28.13671875 C3.66372279 26.08446023 4.32053379 24.03839863 5 22 C5.068991 19.93854893 5.08467727 17.87498599 5.0625 15.8125 C5.05347656 14.72582031 5.04445312 13.63914062 5.03515625 12.51953125 C5.02355469 11.68808594 5.01195312 10.85664063 5 10 C4.01 9.67 3.02 9.34 2 9 C2.33 7.68 2.66 6.36 3 5 C1.93458984 4.47599609 1.93458984 4.47599609 0.84765625 3.94140625 C-0.07144531 3.48636719 -0.99054687 3.03132812 -1.9375 2.5625 C-2.85402344 2.11003906 -3.77054688 1.65757812 -4.71484375 1.19140625 C-7 0 -7 0 -8 -1 C-19.37086481 -2.49335936 -30.89298627 1.87077527 -39 10 Z " fill="#EDE5C2" transform="translate(64,3)"/>
<path d="M0 0 C3.375 1.875 3.375 1.875 6 4 C7.64619113 4.71573527 9.30728055 5.4025696 11 6 C10.67 7.32 10.34 8.64 10 10 C10.99 10.33 11.98 10.66 13 11 C13.47843559 18.61509976 12.85424916 24.50009303 9.95703125 31.57421875 C8.86118283 34.35185904 8.32056722 37.03475323 8 40 C8.66 38.68 9.32 37.36 10 36 C10.66 36 11.32 36 12 36 C12.20496094 35.38511719 12.40992188 34.77023438 12.62109375 34.13671875 C13.74739583 30.7578125 14.87369792 27.37890625 16 24 C16.22451458 21.77425665 16.40782878 19.54418481 16.5625 17.3125 C16.64628906 16.13300781 16.73007813 14.95351563 16.81640625 13.73828125 C16.90728516 12.38283203 16.90728516 12.38283203 17 11 C20.9602291 12.32007637 22.892281 14.4702928 25.3125 17.8125 C26.32501576 21.03414105 25.62796564 23.73457867 25 27 C25.495 25.515 25.495 25.515 26 24 C26.66 24 27.32 24 28 24 C30.27812641 27.63048034 30.29906242 30.77164044 30.3125 35 C30.32925781 36.216875 30.34601563 37.43375 30.36328125 38.6875 C29.98279195 42.15690777 29.362488 43.50660897 27 46 C26.34 45.01 25.68 44.02 25 43 C23.02 43.495 23.02 43.495 21 44 C21 44.66 21 45.32 21 46 C20.01 46.33 19.02 46.66 18 47 C17.566875 47.495 17.13375 47.99 16.6875 48.5 C14.30216451 50.62029821 12.12124285 50.617807 9 51 C6.73214539 51.46691124 5.05016748 51.97334853 3 53.0625 C1 54 1 54 -3 54 C-2.67 53.01 -2.34 52.02 -2 51 C-1.34 51 -0.68 51 0 51 C0.18175781 50.39414062 0.36351563 49.78828125 0.55078125 49.1640625 C0.80214844 48.32617188 1.05351563 47.48828125 1.3125 46.625 C1.58320312 45.71363281 1.85390625 44.80226562 2.1328125 43.86328125 C2.69074273 42.02110621 3.26743156 40.18445421 3.8671875 38.35546875 C5.48013771 33.35532311 6.34274093 29.2553609 6 24 C5.34 23.67 4.68 23.34 4 23 C4.66 22.67 5.32 22.34 6 22 C6.99 22.33 7.98 22.66 9 23 C9 21.68 9 20.36 9 19 C7.68 19 6.36 19 5 19 C4.99742188 18.09636719 4.99484375 17.19273438 4.9921875 16.26171875 C4.87691102 12.74578602 4.69283813 9.45111824 4 6 C1.15899225 3.53025527 1.15899225 3.53025527 -2 3 C-1.51917969 3.38800781 -1.03835937 3.77601562 -0.54296875 4.17578125 C1.45749498 6.54088647 1.48876068 8.12691453 1.6875 11.1875 C1.78611328 12.53908203 1.78611328 12.53908203 1.88671875 13.91796875 C1.92410156 14.60503906 1.96148437 15.29210938 2 16 C1.01 15.67 0.02 15.34 -1 15 C-1 14.01 -1 13.02 -1 12 C-2.670625 12.2784375 -2.670625 12.2784375 -4.375 12.5625 C-8 13 -8 13 -10 12 C-10.10957031 12.56589844 -10.21914063 13.13179687 -10.33203125 13.71484375 C-10.49058594 14.44832031 -10.64914063 15.18179687 -10.8125 15.9375 C-10.96332031 16.66839844 -11.11414062 17.39929688 -11.26953125 18.15234375 C-11.51058594 18.76207031 -11.75164063 19.37179688 -12 20 C-12.99 20.33 -13.98 20.66 -15 21 C-15.18451025 10.44191344 -15.18451025 10.44191344 -14 6 C-13.34 6 -12.68 6 -12 6 C-12.33 5.34 -12.66 4.68 -13 4 C-14.0828125 4.7734375 -14.0828125 4.7734375 -15.1875 5.5625 C-18.4195366 7.21442982 -19.61608307 7.06351675 -23 6 C-17.13409254 0.13409254 -7.93349341 -1.27636645 0 0 Z " fill="#625441" transform="translate(56,2)"/>
<path d="M0 0 C2.64 0.33 5.28 0.66 8 1 C8 6.61 8 12.22 8 18 C7.01 18 6.02 18 5 18 C5 19.98 5 21.96 5 24 C5.99 24.33 6.98 24.66 8 25 C8.33 23.68 8.66 22.36 9 21 C9 21.66 9 22.32 9 23 C9.66 23 10.32 23 11 23 C11.33 22.34 11.66 21.68 12 21 C12.99 24.63 13.98 28.26 15 32 C16.65 31.34 18.3 30.68 20 30 C20.33 30.99 20.66 31.98 21 33 C21.66 33.33 22.32 33.66 23 34 C23 34.66 23 35.32 23 36 C25.64 36.66 28.28 37.32 31 38 C31 36.02 31 34.04 31 32 C30.05125 32.185625 29.1025 32.37125 28.125 32.5625 C25 33 25 33 23 32 C23 31.34 23 30.68 23 30 C22.34 30 21.68 30 21 30 C18.875 25.375 18.875 25.375 20 22 C20 22.66 20 23.32 20 24 C21.32 24 22.64 24 24 24 C24.66 25.32 25.32 26.64 26 28 C26.886875 27.95875 27.77375 27.9175 28.6875 27.875 C32 28 32 28 34.625 29.125 C36.99213253 30.29174656 36.99213253 30.29174656 39.3125 29.125 C39.869375 28.75375 40.42625 28.3825 41 28 C41.99 28.66 42.98 29.32 44 30 C45.94074861 29.72382467 45.94074861 29.72382467 48 29 C51.36541324 28.1791675 52.63997871 27.8799929 56 29 C56.33 27.35 56.66 25.7 57 24 C58.32 23.67 59.64 23.34 61 23 C61 22.34 61 21.68 61 21 C61.66 21 62.32 21 63 21 C63.33 19.68 63.66 18.36 64 17 C64.33 17 64.66 17 65 17 C65 20.63 65 24.26 65 28 C65.99 28 66.98 28 68 28 C68.99 26.515 68.99 26.515 70 25 C70.66 25 71.32 25 72 25 C72.33 24.34 72.66 23.68 73 23 C73.99 23.66 74.98 24.32 76 25 C76 26.32 76 27.64 76 29 C75.26007813 28.9071875 74.52015625 28.814375 73.7578125 28.71875 C70.8582294 28.73570215 70.8582294 28.73570215 68.8671875 30.96875 C68.20976563 31.8040625 67.55234375 32.639375 66.875 33.5 C64.8671875 36.03125 64.8671875 36.03125 63 38 C62.01 38 61.02 38 60 38 C60 38.66 60 39.32 60 40 C50.63187277 45.23155157 41.53354694 46.10670939 31 44 C31 43.34 31 42.68 31 42 C29.7934375 41.9071875 29.7934375 41.9071875 28.5625 41.8125 C22.74572149 40.4858663 16.93275683 37.60143883 13 33 C11.8125 30.8125 11.8125 30.8125 11 29 C10.30132812 29.03480469 9.60265625 29.06960937 8.8828125 29.10546875 C7.97273438 29.13253906 7.06265625 29.15960938 6.125 29.1875 C5.22007813 29.22230469 4.31515625 29.25710937 3.3828125 29.29296875 C2.20332031 29.14794922 2.20332031 29.14794922 1 29 C-2.57343853 23.6398422 -1.10303532 17.2127538 -0.22265625 11.0625 C0.17538079 7.37542003 0.05788388 3.70456827 0 0 Z " fill="#887254" transform="translate(9,52)"/>
<path d="M0 0 C1.31471568 0.28151087 2.62675767 0.57553339 3.9375 0.875 C4.66839844 1.03742187 5.39929688 1.19984375 6.15234375 1.3671875 C8 2 8 2 9 4 C9.05876019 7.20243018 9.02077976 10.38828286 8.9609375 13.58984375 C8.83579913 17.42003413 8.83579913 17.42003413 10 21 C10.5785124 28.17355372 10.5785124 28.17355372 8.25 31.5 C6 33 6 33 2 33 C1.67 31.68 1.34 30.36 1 29 C-1.97153545 28.66968605 -1.97153545 28.66968605 -3.5625 30.375 C-4.036875 30.91125 -4.51125 31.4475 -5 32 C-5.66 32.66 -6.32 33.32 -7 34 C-7 33.34 -7 32.68 -7 32 C-8.485 32.495 -8.485 32.495 -10 33 C-10 29.37 -10 25.74 -10 22 C-10.33 22.99 -10.66 23.98 -11 25 C-11.66 25 -12.32 25 -13 25 C-13 25.66 -13 26.32 -13 27 C-13.99 27.33 -14.98 27.66 -16 28 C-16.66 28.99 -17.32 29.98 -18 31 C-19.32 30.67 -20.64 30.34 -22 30 C-22 28.68 -22 27.36 -22 26 C-20.68 26 -19.36 26 -18 26 C-18 24.35 -18 22.7 -18 21 C-19.65 20.67 -21.3 20.34 -23 20 C-23 19.01 -23 18.02 -23 17 C-23.99 17 -24.98 17 -26 17 C-26 17.66 -26 18.32 -26 19 C-26.99 19 -27.98 19 -29 19 C-28.38722388 16.03824877 -27.74627478 14.61941217 -26 12 C-21.82339427 11.73481868 -18.95659266 11.68113578 -15 13 C-14.71428571 20.42857143 -14.71428571 20.42857143 -17 24 C-16.01 24 -15.02 24 -14 24 C-13.773125 23.113125 -13.54625 22.22625 -13.3125 21.3125 C-12 18 -12 18 -9.375 15.5 C-6.6720431 13.17013527 -6.6720431 13.17013527 -6.6875 9.6875 C-6.790625 8.800625 -6.89375 7.91375 -7 7 C-6.01 7.99 -5.02 8.98 -4 10 C-3.67 7.36 -3.34 4.72 -3 2 C-2.34 2 -1.68 2 -1 2 C1.47907496 7.22696528 1.37366228 12.22088633 1.55859375 17.91796875 C1.70425781 18.93503906 1.84992188 19.95210937 2 21 C3.485 21.99 3.485 21.99 5 23 C5.1875 25.625 5.1875 25.625 5 28 C5.66 28 6.32 28 7 28 C6.81870185 24.56206661 6.81870185 24.56206661 6 21 C4.68 20.34 3.36 19.68 2 19 C2.33 15.04 2.66 11.08 3 7 C3.66 7 4.32 7 5 7 C5.33 6.34 5.66 5.68 6 5 C4.35 5 2.7 5 1 5 C0.67 3.35 0.34 1.7 0 0 Z " fill="#C56922" transform="translate(83,48)"/>
<path d="M0 0 C2.76223278 2.76223278 2.57856291 5.20706617 3 9 C4.65 9 6.3 9 8 9 C7.67 9.99 7.34 10.98 7 12 C6.01 11.505 6.01 11.505 5 11 C5.309375 12.0209375 5.309375 12.0209375 5.625 13.0625 C6.10063829 16.78833331 5.17669149 19.46992554 4 23 C5.65 23.66 7.3 24.32 9 25 C9 27.31 9 29.62 9 32 C8.34 32 7.68 32 7 32 C7 30.35 7 28.7 7 27 C6.35417969 26.81050781 5.70835938 26.62101562 5.04296875 26.42578125 C3 25 3 25 2.42578125 21.91796875 C2.36970703 20.07138672 2.36970703 20.07138672 2.3125 18.1875 C2.15818802 14.00344087 1.95655848 10.08287155 1 6 C0.34 6 -0.32 6 -1 6 C-1 8.97 -1 11.94 -1 15 C-1.99 14.01 -2.98 13.02 -4 12 C-4 13.98 -4 15.96 -4 18 C-4.66 18 -5.32 18 -6 18 C-8.84804907 21.11505367 -10.63312778 24.01328937 -12 28 C-12.99 28 -13.98 28 -15 28 C-14.34 24.37 -13.68 20.74 -13 17 C-14.59328125 17.04640625 -16.1865625 17.0928125 -17.828125 17.140625 C-38.73507431 17.5621892 -38.73507431 17.5621892 -49 13 C-49.33 16.3 -49.66 19.6 -50 23 C-52 22 -54 21 -56 20 C-56.59355614 17.35139573 -56.74209269 14.70802678 -57 12 C-59.33075929 12.95865509 -59.33075929 12.95865509 -61 16 C-61 12.7 -61 9.4 -61 6 C-59.7315625 6.99 -59.7315625 6.99 -58.4375 8 C-54.46641106 10.31045175 -52.50479393 10.07903147 -48 10 C-47.01 10.495 -46.02 10.99 -45 11.5 C-39.40268306 14.1959554 -32.02807424 13.72167086 -26 13 C-24.13640887 11.66489609 -24.13640887 11.66489609 -23 10 C-19.41728333 7.56887083 -16.23080498 7.92444991 -12 8 C-9.70112992 7.80469849 -9.70112992 7.80469849 -8 7 C-7.67 6.01 -7.34 5.02 -7 4 C-6.01 4 -5.02 4 -4 4 C-4 3.34 -4 2.68 -4 2 C-2.68 1.34 -1.36 0.68 0 0 Z " fill="#141213" transform="translate(81,44)"/>
<path d="M0 0 C0.66 0.33 1.32 0.66 2 1 C1.67 1.66 1.34 2.32 1 3 C0.34 3 -0.32 3 -1 3 C-1 7.62 -1 12.24 -1 17 C-0.34 17 0.32 17 1 17 C1.33 14.03 1.66 11.06 2 8 C3.0725 8.165 4.145 8.33 5.25 8.5 C9.03028752 9.08810915 9.03028752 9.08810915 13 9 C12.67 9.99 12.34 10.98 12 12 C12.66 12 13.32 12 14 12 C14 9.03 14 6.06 14 3 C13.01 2.67 12.02 2.34 11 2 C11 1.34 11 0.68 11 0 C15.75 0.75 15.75 0.75 18 3 C18.1953125 6.0390625 18.1953125 6.0390625 18.125 9.625 C18.10695313 10.81351563 18.08890625 12.00203125 18.0703125 13.2265625 C18.04710938 14.14179688 18.02390625 15.05703125 18 16 C19.32 16 20.64 16 22 16 C22 17.32 22 18.64 22 20 C19.69 20.33 17.38 20.66 15 21 C14.67 23.97 14.34 26.94 14 30 C13.01 30.33 12.02 30.66 11 31 C10.93941406 30.16855469 10.87882812 29.33710937 10.81640625 28.48046875 C10.73261719 27.39378906 10.64882813 26.30710937 10.5625 25.1875 C10.48128906 24.10855469 10.40007813 23.02960937 10.31640625 21.91796875 C10.09787539 18.94010095 10.09787539 18.94010095 9 16 C7.35 16 5.7 16 4 16 C3.87882812 16.71027344 3.75765625 17.42054687 3.6328125 18.15234375 C3.38144531 19.53099609 3.38144531 19.53099609 3.125 20.9375 C2.96257813 21.85402344 2.80015625 22.77054688 2.6328125 23.71484375 C2.42398438 24.46894531 2.21515625 25.22304688 2 26 C1.34 26.33 0.68 26.66 0 27 C-3 23.375 -3 23.375 -3 20 C-4.32 20 -5.64 20 -7 20 C-7.33 20.99 -7.66 21.98 -8 23 C-8.66 23 -9.32 23 -10 23 C-10 19.37 -10 15.74 -10 12 C-9.01 11.67 -8.02 11.34 -7 11 C-6.95875 10.113125 -6.9175 9.22625 -6.875 8.3125 C-5.67871446 3.78370473 -3.73728113 2.70356508 0 0 Z " fill="#A97243" transform="translate(43,5)"/>
<path d="M0 0 C0 0.66 0 1.32 0 2 C1.010625 2.061875 2.02125 2.12375 3.0625 2.1875 C10.41273657 3.28410788 14.68719655 8.43399224 18.93359375 14.1328125 C20 16 20 16 20 19 C20.66 19 21.32 19 22 19 C25.71747383 26.50133113 26.47338986 32.68937804 26 41 C26 43.15634036 26.4465236 44.92446352 27 47 C23.535 46.505 23.535 46.505 20 46 C20.16242188 45.32066406 20.32484375 44.64132813 20.4921875 43.94140625 C21.07594266 40.56011677 21.13233823 37.36812113 21.125 33.9375 C21.12757812 32.72964844 21.13015625 31.52179687 21.1328125 30.27734375 C21.02563681 27.63262593 20.78700137 25.50466308 20 23 C19.34 23 18.68 23 18 23 C17.67 24.98 17.34 26.96 17 29 C16.67 29 16.34 29 16 29 C16 24.33333333 16 19.66666667 16 15 C14.68 14.34 13.36 13.68 12 13 C12 12.34 12 11.68 12 11 C11.34 11 10.68 11 10 11 C9.97873047 12.09054687 9.97873047 12.09054687 9.95703125 13.203125 C9.57140421 21.33255997 7.5124924 27.68986821 4 35 C3.34 35 2.68 35 2 35 C1.87625 35.639375 1.7525 36.27875 1.625 36.9375 C1.41875 37.618125 1.2125 38.29875 1 39 C0.01 39.495 0.01 39.495 -1 40 C0.64007905 30.58401672 0.64007905 30.58401672 2.625 26.125 C4.74904973 20.93762228 4.24775819 15.50573753 4 10 C3.34 9.67 2.68 9.34 2 9 C2 7.68 2 6.36 2 5 C1.15115234 4.70996094 1.15115234 4.70996094 0.28515625 4.4140625 C-0.44832031 4.15367187 -1.18179688 3.89328125 -1.9375 3.625 C-2.66839844 3.36976563 -3.39929687 3.11453125 -4.15234375 2.8515625 C-6 2 -6 2 -7 0 C-3.98968256 -0.93423645 -3.13349732 -1.04449911 0 0 Z " fill="#E2D9B9" transform="translate(64,3)"/>
<path d="M0 0 C0.33 0 0.66 0 1 0 C1 3.63 1 7.26 1 11 C1.99 11 2.98 11 4 11 C4.66 10.01 5.32 9.02 6 8 C6.66 8 7.32 8 8 8 C8.33 7.34 8.66 6.68 9 6 C9.99 6.66 10.98 7.32 12 8 C12 9.32 12 10.64 12 12 C11.26007813 11.9071875 10.52015625 11.814375 9.7578125 11.71875 C6.8582294 11.73570215 6.8582294 11.73570215 4.8671875 13.96875 C4.20976563 14.8040625 3.55234375 15.639375 2.875 16.5 C0.8671875 19.03125 0.8671875 19.03125 -1 21 C-1.99 21 -2.98 21 -4 21 C-4 21.66 -4 22.32 -4 23 C-10.89999866 27.19411683 -17.00088158 27.75612444 -25 28 C-25 27.34 -25 26.68 -25 26 C-25.598125 25.896875 -26.19625 25.79375 -26.8125 25.6875 C-29.28243264 24.91123545 -30.32251235 23.92911079 -32 22 C-31.505 20.515 -31.505 20.515 -31 19 C-25.76528314 18.24387423 -21.22745859 17.7936634 -16 19 C-15.67 18.01 -15.34 17.02 -15 16 C-11.86650268 14.95550089 -11.01031744 15.06576355 -8 16 C-7.67 15.01 -7.34 14.02 -7 13 C-6.01 12.67 -5.02 12.34 -4 12 C-1.10755598 8.25053553 -0.78839458 5.65531925 -1 1 C-0.67 0.67 -0.34 0.34 0 0 Z " fill="#9E3F18" transform="translate(73,69)"/>
<path d="M0 0 C0.5625 1.9375 0.5625 1.9375 1 4 C0.67 4.33 0.34 4.66 0 5 C-0.63672655 14.23253498 0.82362446 24.37706725 4.66796875 32.8359375 C5.10753906 33.88007812 5.54710938 34.92421875 6 36 C5.67 36.66 5.34 37.32 5 38 C0 32.375 0 32.375 0 29 C-0.66 29 -1.32 29 -2 29 C-2.33 26.69 -2.66 24.38 -3 22 C-4.32 21.67 -5.64 21.34 -7 21 C-6.74273307 22.89772191 -6.46856661 24.79315677 -6.1875 26.6875 C-6.03667969 27.74324219 -5.88585938 28.79898438 -5.73046875 29.88671875 C-4.97602193 33.10219531 -3.70607432 35.20868643 -2 38 C-2.33 38.66 -2.66 39.32 -3 40 C-4.23697917 38.47005208 -5.47395833 36.94010417 -6.7109375 35.41015625 C-7.9666391 33.86733563 -7.9666391 33.86733563 -10 33 C-11.3749149 30.09740189 -12 28.23861295 -12 25 C-12.66 25 -13.32 25 -14 25 C-14.19573608 23.56359829 -14.38127816 22.12580496 -14.5625 20.6875 C-14.71912109 19.48673828 -14.71912109 19.48673828 -14.87890625 18.26171875 C-15 16 -15 16 -14 13 C-13.0206121 11.97980427 -12.02104551 10.97850195 -11 10 C-10.67 9.34 -10.34 8.68 -10 8 C-9.34 8 -8.68 8 -8 8 C-7.79375 7.4225 -7.5875 6.845 -7.375 6.25 C-5.50249112 3.18589456 -3.03041481 1.84460032 0 0 Z " fill="#38312B" transform="translate(32,8)"/>
<path d="M0 0 C3.51529969 0.43941246 6.3328659 1.13773762 9.625 2.5 C14.8982246 4.60313433 20.38267822 4.72849611 26 5 C25.34 6.98 24.68 8.96 24 11 C24.99 11 25.98 11 27 11 C27 10.34 27 9.68 27 9 C27.99 9 28.98 9 30 9 C30.495 10.485 30.495 10.485 31 12 C33.01508358 12.73323796 33.01508358 12.73323796 35 13 C35 14.32 35 15.64 35 17 C31.8125 17.8125 31.8125 17.8125 28 18 C25.0625 15.8125 25.0625 15.8125 23 13 C23 11.68 23 10.36 23 9 C22.1028125 9.2784375 22.1028125 9.2784375 21.1875 9.5625 C19 10 19 10 16 9 C15.9071875 10.423125 15.9071875 10.423125 15.8125 11.875 C15 15 15 15 13.0625 16.4375 C8.60981289 17.25534049 4.45357948 16.63993181 0 16 C0 14.68 0 13.36 0 12 C-1.32 11.34 -2.64 10.68 -4 10 C-3.67 9.34 -3.34 8.68 -3 8 C-1.68 8.99 -0.36 9.98 1 11 C1.33 7.7 1.66 4.4 2 1 C1.34 0.67 0.68 0.34 0 0 Z " fill="#77290E" transform="translate(30,56)"/>
<path d="M0 0 C0.845625 0.70125 1.69125 1.4025 2.5625 2.125 C3.8816582 2.81929379 5.20899406 3.50030495 6.5625 4.125 C6.2325 4.785 5.9025 5.445 5.5625 6.125 C4.9025 6.125 4.2425 6.125 3.5625 6.125 C5.08805966 10.93622847 5.08805966 10.93622847 8.5625 14.125 C8.5625 14.785 8.5625 15.445 8.5625 16.125 C6.2525 16.455 3.9425 16.785 1.5625 17.125 C1.55992188 16.22136719 1.55734375 15.31773438 1.5546875 14.38671875 C1.43941102 10.87078602 1.25533813 7.57611824 0.5625 4.125 C-2.27850775 1.65525527 -2.27850775 1.65525527 -5.4375 1.125 C-4.95667969 1.51300781 -4.47585937 1.90101562 -3.98046875 2.30078125 C-1.98000502 4.66588647 -1.94873932 6.25191453 -1.75 9.3125 C-1.65138672 10.66408203 -1.65138672 10.66408203 -1.55078125 12.04296875 C-1.51339844 12.73003906 -1.47601563 13.41710938 -1.4375 14.125 C-2.4275 13.795 -3.4175 13.465 -4.4375 13.125 C-4.4375 12.135 -4.4375 11.145 -4.4375 10.125 C-6.108125 10.4034375 -6.108125 10.4034375 -7.8125 10.6875 C-11.4375 11.125 -11.4375 11.125 -13.4375 10.125 C-13.54707031 10.69089844 -13.65664063 11.25679687 -13.76953125 11.83984375 C-13.92808594 12.57332031 -14.08664063 13.30679687 -14.25 14.0625 C-14.40082031 14.79339844 -14.55164062 15.52429688 -14.70703125 16.27734375 C-14.94808594 16.88707031 -15.18914063 17.49679688 -15.4375 18.125 C-16.4275 18.455 -17.4175 18.785 -18.4375 19.125 C-18.62201025 8.56691344 -18.62201025 8.56691344 -17.4375 4.125 C-16.7775 4.125 -16.1175 4.125 -15.4375 4.125 C-15.7675 3.465 -16.0975 2.805 -16.4375 2.125 C-17.5203125 2.8984375 -17.5203125 2.8984375 -18.625 3.6875 C-21.8570366 5.33942982 -23.05358307 5.18851675 -26.4375 4.125 C-19.85594182 -2.45655818 -8.11436565 -4.42601762 0 0 Z " fill="#686152" transform="translate(59.4375,3.875)"/>
<path d="M0 0 C3.9602291 1.32007637 5.892281 3.4702928 8.3125 6.8125 C9.32501576 10.03414105 8.62796564 12.73457867 8 16 C8.33 15.01 8.66 14.02 9 13 C9.66 13 10.32 13 11 13 C13.27812641 16.63048034 13.29906242 19.77164044 13.3125 24 C13.33763672 25.8253125 13.33763672 25.8253125 13.36328125 27.6875 C12.98279195 31.15690777 12.362488 32.50660897 10 35 C9.34 34.01 8.68 33.02 8 32 C6.02 32.495 6.02 32.495 4 33 C4 33.66 4 34.32 4 35 C0.21812119 36.83691257 -1.94568308 37.15837626 -6 36 C-6 35.34 -6 34.68 -6 34 C-5.34 34 -4.68 34 -4 34 C-3.67 33.01 -3.34 32.02 -3 31 C-2.34 31 -1.68 31 -1 31 C-0.731875 30.29875 -0.46375 29.5975 -0.1875 28.875 C1 26 1 26 2.625 23.25 C4.77196421 18.17535732 4.73739015 13.21217045 3 8 C2.01 8 1.02 8 0 8 C0 5.36 0 2.72 0 0 Z " fill="#635646" transform="translate(73,13)"/>
<path d="M0 0 C1.31471568 0.28151087 2.62675767 0.57553339 3.9375 0.875 C4.66839844 1.03742187 5.39929688 1.19984375 6.15234375 1.3671875 C8 2 8 2 9 4 C9.05876019 7.20243018 9.02077976 10.38828286 8.9609375 13.58984375 C8.83579913 17.42003413 8.83579913 17.42003413 10 21 C10.5785124 28.17355372 10.5785124 28.17355372 8.25 31.5 C6 33 6 33 2 33 C1.896875 32.401875 1.79375 31.80375 1.6875 31.1875 C1.1901813 28.92940647 1.1901813 28.92940647 -0.5246582 27.69604492 C-2.58138759 25.33163998 -2.34430628 23.77314581 -2.29296875 20.67578125 C-2.2784668 19.13374023 -2.2784668 19.13374023 -2.26367188 17.56054688 C-2.23853516 16.48869141 -2.21339844 15.41683594 -2.1875 14.3125 C-2.16719727 12.68731445 -2.16719727 12.68731445 -2.14648438 11.02929688 C-2.11110643 8.35236595 -2.06174189 5.67643162 -2 3 C1.89352569 7.72251145 1.44476609 11.91104067 1.59375 17.8828125 C1.7278125 18.91148438 1.861875 19.94015625 2 21 C2.99 21.66 3.98 22.32 5 23 C5.1875 25.625 5.1875 25.625 5 28 C5.66 28 6.32 28 7 28 C6.81870185 24.56206661 6.81870185 24.56206661 6 21 C4.68 20.34 3.36 19.68 2 19 C2.33 15.04 2.66 11.08 3 7 C3.66 7 4.32 7 5 7 C5.33 6.34 5.66 5.68 6 5 C4.35 5 2.7 5 1 5 C0.67 3.35 0.34 1.7 0 0 Z " fill="#92704D" transform="translate(83,48)"/>
<path d="M0 0 C0.75 1.625 0.75 1.625 1 4 C-2.136 9.712 -2.136 9.712 -6 11 C-6.33 11.66 -6.66 12.32 -7 13 C-8.670625 13.2165625 -8.670625 13.2165625 -10.375 13.4375 C-13.94751469 13.61689706 -13.94751469 13.61689706 -15.5625 15.625 C-16.036875 16.07875 -16.51125 16.5325 -17 17 C-19.9375 16.625 -19.9375 16.625 -23 16 C-23.70125 16.226875 -24.4025 16.45375 -25.125 16.6875 C-25.74375 16.790625 -26.3625 16.89375 -27 17 C-27.598125 16.360625 -28.19625 15.72125 -28.8125 15.0625 C-30.93975796 12.61086337 -30.93975796 12.61086337 -34.625 12.8125 C-35.73875 12.874375 -36.8525 12.93625 -38 13 C-38.66 12.67 -39.32 12.34 -40 12 C-40 11.34 -40 10.68 -40 10 C-40.66 10 -41.32 10 -42 10 C-44.125 5.375 -44.125 5.375 -43 2 C-43 2.66 -43 3.32 -43 4 C-41.68 4 -40.36 4 -39 4 C-38.34 5.32 -37.68 6.64 -37 8 C-35.6696875 7.938125 -35.6696875 7.938125 -34.3125 7.875 C-31 8 -31 8 -28.375 9.125 C-26.00786747 10.29174656 -26.00786747 10.29174656 -23.6875 9.125 C-23.130625 8.75375 -22.57375 8.3825 -22 8 C-21.01 8.66 -20.02 9.32 -19 10 C-17.05925139 9.72382467 -17.05925139 9.72382467 -15 9 C-11.63458676 8.1791675 -10.36002129 7.8799929 -7 9 C-6.67 7.35 -6.34 5.7 -6 4 C-4.68 3.67 -3.36 3.34 -2 3 C-2 2.34 -2 1.68 -2 1 C-1.34 0.67 -0.68 0.34 0 0 Z " fill="#3A1409" transform="translate(72,72)"/>
<path d="M0 0 C2 2 2 2 2 5 C3.65 5 5.3 5 7 5 C6.67 5.99 6.34 6.98 6 8 C5.34 7.67 4.68 7.34 4 7 C4.20625 7.680625 4.4125 8.36125 4.625 9.0625 C5.10063829 12.78833331 4.17669149 15.46992554 3 19 C4.65 19.66 6.3 20.32 8 21 C8 23.31 8 25.62 8 28 C7.34 28 6.68 28 6 28 C6 26.35 6 24.7 6 23 C5.03126953 22.71576172 5.03126953 22.71576172 4.04296875 22.42578125 C2 21 2 21 1.42578125 17.91796875 C1.38839844 16.68691406 1.35101563 15.45585938 1.3125 14.1875 C1.15818802 10.00344087 0.95655848 6.08287155 0 2 C-0.66 2 -1.32 2 -2 2 C-2 4.97 -2 7.94 -2 11 C-2.99 10.01 -3.98 9.02 -5 8 C-5 9.98 -5 11.96 -5 14 C-5.66 14 -6.32 14 -7 14 C-9.84804907 17.11505367 -11.63312778 20.01328937 -13 24 C-13.99 24 -14.98 24 -16 24 C-15.34 20.37 -14.68 16.74 -14 13 C-16.64 12.67 -19.28 12.34 -22 12 C-19.37801226 9.84622436 -17.35595828 8.59927826 -14 8 C-14 7.34 -14 6.68 -14 6 C-13.34 6 -12.68 6 -12 6 C-12 7.65 -12 9.3 -12 11 C-11.67 10.34 -11.34 9.68 -11 9 C-10.34 9 -9.68 9 -9 9 C-8.896875 8.360625 -8.79375 7.72125 -8.6875 7.0625 C-8.460625 6.381875 -8.23375 5.70125 -8 5 C-7.01 4.67 -6.02 4.34 -5 4 C-4.67 3.34 -4.34 2.68 -4 2 C-4.66 1.67 -5.32 1.34 -6 1 C-3.125 0.375 -3.125 0.375 0 0 Z " fill="#3F170A" transform="translate(82,48)"/>
<path d="M0 0 C2.875 -0.1875 2.875 -0.1875 6 0 C6.66 0.99 7.32 1.98 8 3 C8 2.34 8 1.68 8 1 C8.66 1 9.32 1 10 1 C10.33 3.31 10.66 5.62 11 8 C11.66 8 12.32 8 13 8 C13 11.3 13 14.6 13 18 C13.66 18 14.32 18 15 18 C15.96070434 20.88211302 16.10581883 22.69850044 16.0625 25.6875 C16.05347656 26.49574219 16.04445313 27.30398437 16.03515625 28.13671875 C16.02355469 28.75160156 16.01195313 29.36648437 16 30 C15.34 30 14.68 30 14 30 C14 29.34 14 28.68 14 28 C13.01 28 12.02 28 11 28 C10.67 27.34 10.34 26.68 10 26 C9.34 26 8.68 26 8 26 C7.67 26.66 7.34 27.32 7 28 C5.68 27.67 4.36 27.34 3 27 C3.33 25.02 3.66 23.04 4 21 C4.99 21 5.98 21 7 21 C7 15.39 7 9.78 7 4 C4.69 4 2.38 4 0 4 C0 2.68 0 1.36 0 0 Z " fill="#F08C1E" transform="translate(10,49)"/>
<path d="M0 0 C0.99 0.33 1.98 0.66 3 1 C4.73315804 6.19947411 4.74404103 11.15761269 2.6875 16.25 C2.130625 17.1575 1.57375 18.065 1 19 C0.566875 19.9075 0.13375 20.815 -0.3125 21.75 C-2.50653419 24.67537893 -4.51324874 25.14768302 -8 26 C-8 26.66 -8 27.32 -8 28 C-8.99 28 -9.98 28 -11 28 C-10.21302675 24.58978257 -9.12880057 21.31114834 -8 18 C-7.34 18 -6.68 18 -6 18 C-5.81824219 17.45472656 -5.63648437 16.90945312 -5.44921875 16.34765625 C-3.6328125 10.8984375 -1.81640625 5.44921875 0 0 Z " fill="#14100C" transform="translate(74,20)"/>
<path d="M0 0 C0.33 0.66 0.66 1.32 1 2 C1.66 2 2.32 2 3 2 C3.33 1.34 3.66 0.68 4 0 C4.99 3.63 5.98 7.26 7 11 C8.65 10.34 10.3 9.68 12 9 C12.33 9.99 12.66 10.98 13 12 C13.66 12.33 14.32 12.66 15 13 C15 13.66 15 14.32 15 15 C17.64 15.66 20.28 16.32 23 17 C23 15.02 23 13.04 23 11 C24.32 12.32 25.64 13.64 27 15 C26.01 15.495 26.01 15.495 25 16 C26.04874998 18.62187494 26.64931313 19.79371361 29.125 21.25 C29.74375 21.4975 30.3625 21.745 31 22 C31 22.66 31 23.32 31 24 C28.36 23.67 25.72 23.34 23 23 C23 22.34 23 21.68 23 21 C21.7934375 20.9071875 21.7934375 20.9071875 20.5625 20.8125 C14.67467295 19.46966225 9.04629152 16.56722127 5 12 C3.8125 9.8125 3.8125 9.8125 3 8 C0.36 8 -2.28 8 -5 8 C-5 7.34 -5 6.68 -5 6 C-4.34 6 -3.68 6 -3 6 C-3 5.34 -3 4.68 -3 4 C-2.01 4 -1.02 4 0 4 C0 2.68 0 1.36 0 0 Z " fill="#6F5039" transform="translate(17,73)"/>
<path d="M0 0 C0.33 0 0.66 0 1 0 C0.835 1.134375 0.67 2.26875 0.5 3.4375 C-0.68414445 11.40280545 -0.68414445 11.40280545 1 19 C2.04800781 18.96519531 2.04800781 18.96519531 3.1171875 18.9296875 C4.02726563 18.91164063 4.93734375 18.89359375 5.875 18.875 C7.23238281 18.84019531 7.23238281 18.84019531 8.6171875 18.8046875 C11 19 11 19 13 21 C13 21.99 13 22.98 13 24 C13.99 24.33 14.98 24.66 16 25 C16.33 25.66 16.66 26.32 17 27 C18.75898018 27.91959713 20.55798155 28.76367955 22.375 29.5625 C23.35210937 29.99691406 24.32921875 30.43132812 25.3359375 30.87890625 C28.02878142 32.05209403 28.02878142 32.05209403 31 33 C31 33.66 31 34.32 31 35 C23.23349066 34.96817004 18.69009967 33.28272532 13 28 C12.14728516 27.22269531 12.14728516 27.22269531 11.27734375 26.4296875 C10 25 10 25 10 23 C9.40832031 23.05800781 8.81664062 23.11601563 8.20703125 23.17578125 C3.96632611 23.4179096 1.63667398 23.3898004 -2.0625 21.125 C-4.8105901 16.69259662 -4.86945198 13.08590936 -4 8 C-2.9061048 5.08451109 -1.59784651 2.69636598 0 0 Z " fill="#F4EBC6" transform="translate(9,61)"/>
<path d="M0 0 C0.33 0 0.66 0 1 0 C1 3.63 1 7.26 1 11 C1.99 11 2.98 11 4 11 C4.66 10.01 5.32 9.02 6 8 C6.66 8 7.32 8 8 8 C8.33 7.34 8.66 6.68 9 6 C9.99 6.66 10.98 7.32 12 8 C12 9.32 12 10.64 12 12 C11.26007813 11.9071875 10.52015625 11.814375 9.7578125 11.71875 C6.8582294 11.73570215 6.8582294 11.73570215 4.8671875 13.96875 C4.20976563 14.8040625 3.55234375 15.639375 2.875 16.5 C0.8671875 19.03125 0.8671875 19.03125 -1 21 C-1.99 21 -2.98 21 -4 21 C-4 21.66 -4 22.32 -4 23 C-9.39459439 26.08467498 -13.79011871 27.55643705 -20 28 C-18.8428674 24.52860221 -18.0788151 23.84198076 -15 22 C-12.421875 21.48828125 -12.421875 21.48828125 -9.75 21.3125 C-8.85796875 21.24675781 -7.9659375 21.18101563 -7.046875 21.11328125 C-6.37140625 21.07589844 -5.6959375 21.03851563 -5 21 C-2.75059006 14.63327345 -2.75059006 14.63327345 -2 8 C-1.51265964 5.21519796 -0.89587361 2.68762083 0 0 Z " fill="#64331E" transform="translate(73,69)"/>
<path d="M0 0 C0.02917228 3.22914752 0.04685663 6.45826083 0.0625 9.6875 C0.07087891 10.59951172 0.07925781 11.51152344 0.08789062 12.45117188 C0.09111328 13.33740234 0.09433594 14.22363281 0.09765625 15.13671875 C0.10289307 15.94842529 0.10812988 16.76013184 0.11352539 17.59643555 C-0.0070209 20.14864673 -0.440051 22.51026137 -1 25 C-2.875 24.8125 -2.875 24.8125 -5 24 C-7.21766006 19.86036788 -7.2986832 16.07533781 -7.3125 11.4375 C-7.33763672 9.48650391 -7.33763672 9.48650391 -7.36328125 7.49609375 C-6.78056968 1.88827807 -5.77976933 0 0 0 Z " fill="#040405" transform="translate(53,21)"/>
<path d="M0 0 C2.31 0 4.62 0 7 0 C7.268125 0.763125 7.53625 1.52625 7.8125 2.3125 C9.27626834 5.70185318 9.27626834 5.70185318 12 8 C15.62535976 8.2503577 15.62535976 8.2503577 19 8 C17.68 8.33 16.36 8.66 15 9 C15 10.32 15 11.64 15 13 C16.32 13.33 17.64 13.66 19 14 C19 14.66 19 15.32 19 16 C17.88625 15.95875 16.7725 15.9175 15.625 15.875 C11.95633975 15.58878141 11.95633975 15.58878141 10 18 C7.875 17.625 7.875 17.625 6 17 C6 16.34 6 15.68 6 15 C6.66 15 7.32 15 8 15 C8 13.35 8 11.7 8 10 C7.01 11.485 7.01 11.485 6 13 C6 12.34 6 11.68 6 11 C4.02 11.33 2.04 11.66 0 12 C0 11.01 0 10.02 0 9 C0.66 9 1.32 9 2 9 C2.66 7.68 3.32 6.36 4 5 C1.0745356 4.7763932 1.0745356 4.7763932 -1 6 C-0.67 4.02 -0.34 2.04 0 0 Z " fill="#F08D23" transform="translate(46,65)"/>
<path d="M0 0 C1.2065625 0.0309375 1.2065625 0.0309375 2.4375 0.0625 C1.62152344 0.7328125 0.80554687 1.403125 -0.03515625 2.09375 C-3.2269533 5.84300155 -3.15045684 7.70905369 -3 12.5625 C-2.96712891 14.49609375 -2.96712891 14.49609375 -2.93359375 16.46875 C-2.59014022 19.79482625 -2.17754878 22.14779916 -0.5625 25.0625 C0.4275 25.3925 1.4175 25.7225 2.4375 26.0625 C2.7675 18.8025 3.0975 11.5425 3.4375 4.0625 C3.7675 4.0625 4.0975 4.0625 4.4375 4.0625 C4.4375 8.0225 4.4375 11.9825 4.4375 16.0625 C5.4275 15.7325 6.4175 15.4025 7.4375 15.0625 C6.98787804 17.02285175 6.52751752 18.98074309 6.0625 20.9375 C5.80726562 22.02804688 5.55203125 23.11859375 5.2890625 24.2421875 C4.4375 27.0625 4.4375 27.0625 2.4375 29.0625 C-0.1875 29.1875 -0.1875 29.1875 -2.5625 29.0625 C-2.5625 28.4025 -2.5625 27.7425 -2.5625 27.0625 C-3.2225 27.0625 -3.8825 27.0625 -4.5625 27.0625 C-6.83307103 21.02192424 -8.05164188 15.49931228 -8.5625 9.0625 C-7.0775 10.0525 -7.0775 10.0525 -5.5625 11.0625 C-5.42972656 10.35222656 -5.29695313 9.64195313 -5.16015625 8.91015625 C-4.98355469 7.99105469 -4.80695312 7.07195313 -4.625 6.125 C-4.45097656 5.20847656 -4.27695312 4.29195312 -4.09765625 3.34765625 C-3.35353878 0.17022035 -3.31733379 0.08091058 0 0 Z " fill="#3C3D39" transform="translate(49.5625,19.9375)"/>
<path d="M0 0 C-0.03480469 0.62003906 -0.06960937 1.24007813 -0.10546875 1.87890625 C-0.39421457 11.32501966 0.72900359 21.15657278 4.66796875 29.828125 C5.10753906 30.87484375 5.54710937 31.9215625 6 33 C5.67 33.66 5.34 34.32 5 35 C0 29.375 0 29.375 0 26 C-0.66 26 -1.32 26 -2 26 C-5.11671374 18.4679418 -6.0667944 11.13692202 -5 3 C-2.80816327 0 -2.80816327 0 0 0 Z " fill="#C67E35" transform="translate(32,11)"/>
<path d="M0 0 C1.98 0.99 3.96 1.98 6 3 C6.63511169 13.33115022 5.88118979 20.6385753 1 30 C0.34 30 -0.32 30 -1 30 C-1.12375 30.639375 -1.2475 31.27875 -1.375 31.9375 C-1.58125 32.618125 -1.7875 33.29875 -2 34 C-2.99 34.495 -2.99 34.495 -4 35 C-2.35992095 25.58401672 -2.35992095 25.58401672 -0.375 21.125 C1.74904973 15.93762228 1.24775819 10.50573753 1 5 C0.34 4.67 -0.32 4.34 -1 4 C-0.67 2.68 -0.34 1.36 0 0 Z " fill="#D58230" transform="translate(67,8)"/>
<path d="M0 0 C4.75 0.75 4.75 0.75 7 3 C7.1953125 6.0390625 7.1953125 6.0390625 7.125 9.625 C7.10695313 10.81351563 7.08890625 12.00203125 7.0703125 13.2265625 C7.04710937 14.14179688 7.02390625 15.05703125 7 16 C8.32 16 9.64 16 11 16 C11 17.32 11 18.64 11 20 C8.69 20.33 6.38 20.66 4 21 C3.67 21.99 3.34 22.98 3 24 C3 21.03 3 18.06 3 15 C1.68 14.67 0.36 14.34 -1 14 C-1.33 13.01 -1.66 12.02 -2 11 C-4.01508358 10.26676204 -4.01508358 10.26676204 -6 10 C-3.69 9.34 -1.38 8.68 1 8 C1.33 8.66 1.66 9.32 2 10 C1.67 10.66 1.34 11.32 1 12 C1.66 12 2.32 12 3 12 C3 9.03 3 6.06 3 3 C2.01 2.67 1.02 2.34 0 2 C0 1.34 0 0.68 0 0 Z " fill="#686151" transform="translate(54,5)"/>
<path d="M0 0 C1.65 0 3.3 0 5 0 C4.71848913 1.31471568 4.42446661 2.62675767 4.125 3.9375 C3.96257813 4.66839844 3.80015625 5.39929688 3.6328125 6.15234375 C3 8 3 8 1 9 C0.5316735 11.58605332 0.5316735 11.58605332 0.375 14.5625 C0.30023438 15.57441406 0.22546875 16.58632813 0.1484375 17.62890625 C0.09945312 18.41136719 0.05046875 19.19382812 0 20 C0.4125 19.505 0.825 19.01 1.25 18.5 C3 17 3 17 7 17 C6.67 17.66 6.34 18.32 6 19 C5.34 18.67 4.68 18.34 4 18 C4.28080635 24.59894933 5.46465123 29.87061282 8.2578125 35.87109375 C9 38 9 38 8 41 C6.5393715 38.35261084 6 37.10551666 6 34 C5.34 34 4.68 34 4 34 C-1.62590691 26.42165753 -2.74221123 14.20341922 -2 5 C-1 1.9375 -1 1.9375 0 0 Z " fill="#503F2F" transform="translate(33,8)"/>
<path d="M0 0 C1.2684375 0.99 1.2684375 0.99 2.5625 2 C5.81436155 4.27763916 5.81436155 4.27763916 9.3125 4 C14.2245353 4 17.68301694 5.8072467 22 8 C22 8.66 22 9.32 22 10 C18.7 9.01 15.4 8.02 12 7 C11.67 10.3 11.34 13.6 11 17 C9 16 7 15 5 14 C4.40644386 11.35139573 4.25790731 8.70802678 4 6 C1.66924071 6.95865509 1.66924071 6.95865509 0 10 C0 6.7 0 3.4 0 0 Z " fill="#421A10" transform="translate(20,50)"/>
<path d="M0 0 C1.32 0 2.64 0 4 0 C5.97789039 7.08744057 3.68715876 13.32572582 1 20 C-0.640625 22.39453125 -0.640625 22.39453125 -2 24 C-2.99 23.67 -3.98 23.34 -5 23 C-4.80664062 22.26136719 -4.61328125 21.52273437 -4.4140625 20.76171875 C-2.64748057 13.87904558 -1.17260421 7.00803458 0 0 Z " fill="#090909" transform="translate(58,26)"/>
<path d="M0 0 C0.66 0.99 1.32 1.98 2 3 C1.125 6.1875 1.125 6.1875 0 9 C0.99 9 1.98 9 3 9 C3 8.34 3 7.68 3 7 C3.99 6.67 4.98 6.34 6 6 C6 6.66 6 7.32 6 8 C5.34 8 4.68 8 4 8 C4 8.66 4 9.32 4 10 C5.98 10 7.96 10 10 10 C10 10.66 10 11.32 10 12 C7.27227367 13.74574485 5.87796349 13.99778115 2.5625 13.9375 C-1.38318467 14.00672254 -2.77026071 14.90503397 -6 17 C-7.32 17 -8.64 17 -10 17 C-9.505 15.515 -9.505 15.515 -9 14 C-8.34 14 -7.68 14 -7 14 C-6.773125 13.360625 -6.54625 12.72125 -6.3125 12.0625 C-4.51434174 7.86679739 -2.26095979 3.96099444 0 0 Z " fill="#3E3834" transform="translate(63,39)"/>
<path d="M0 0 C2.875 -0.1875 2.875 -0.1875 6 0 C6.66 0.99 7.32 1.98 8 3 C8 2.34 8 1.68 8 1 C8.66 1 9.32 1 10 1 C9.34 6.94 8.68 12.88 8 19 C8.66 19 9.32 19 10 19 C11.125 23.75 11.125 23.75 10 26 C9.34 26 8.68 26 8 26 C7.67 26.66 7.34 27.32 7 28 C5.68 27.67 4.36 27.34 3 27 C3.33 25.02 3.66 23.04 4 21 C4.99 21 5.98 21 7 21 C7 15.39 7 9.78 7 4 C4.69 4 2.38 4 0 4 C0 2.68 0 1.36 0 0 Z " fill="#BD9663" transform="translate(10,49)"/>
<path d="M0 0 C4.02359439 1.34119813 6.05237422 3.51087378 8.3125 7.0625 C9 9 9 9 8 12 C8.12375 13.794375 8.12375 13.794375 8.25 15.625 C8.36780018 20.90637466 5.7970015 24.68462625 3 29 C2.34 29 1.68 29 1 29 C0.34 30.32 -0.32 31.64 -1 33 C-1.33 32.34 -1.66 31.68 -2 31 C-1.0390625 29.16015625 -1.0390625 29.16015625 0.375 27.0625 C2.98886 23.15631258 4.14076114 20.22834058 4.125 15.5 C4.12757812 14.7265625 4.13015625 13.953125 4.1328125 13.15625 C4.08145813 10.81552983 4.08145813 10.81552983 3 8 C2.01 8 1.02 8 0 8 C0 5.36 0 2.72 0 0 Z " fill="#554E40" transform="translate(73,13)"/>
<path d="M0 0 C0.99 0.33 1.98 0.66 3 1 C3 1.66 3 2.32 3 3 C4.32 3 5.64 3 7 3 C7.99 4.485 7.99 4.485 9 6 C9.99 6.33 10.98 6.66 12 7 C12 11.95 12 16.9 12 22 C11.01 22.33 10.02 22.66 9 23 C8.93941406 22.16855469 8.87882812 21.33710937 8.81640625 20.48046875 C8.69072266 18.85044922 8.69072266 18.85044922 8.5625 17.1875 C8.48128906 16.10855469 8.40007813 15.02960937 8.31640625 13.91796875 C8.09787539 10.94010095 8.09787539 10.94010095 7 8 C4.58354218 7.83312552 4.58354218 7.83312552 2 8 C1.34 8.66 0.68 9.32 0 10 C-1.231394 6.30581799 -0.64432764 3.7943739 0 0 Z " fill="#A89776" transform="translate(45,13)"/>
<path d="M0 0 C1.32 0.33 2.64 0.66 4 1 C4.33 3.31 4.66 5.62 5 8 C5.66 8 6.32 8 7 8 C8.65 11.63 10.3 15.26 12 19 C10.68 19 9.36 19 8 19 C7.67 18.34 7.34 17.68 7 17 C6.38125 16.7525 5.7625 16.505 5.125 16.25 C1.93687899 14.3746347 1.2554843 12.45258182 0 9 C-0.23152132 5.98037088 -0.18126989 3.02116482 0 0 Z " fill="#0D0908" transform="translate(25,29)"/>
<path d="M0 0 C1.89453125 0.55859375 1.89453125 0.55859375 4 2 C5.01171875 5.22265625 5.01171875 5.22265625 5.6875 9.0625 C6.1160921 13.35674383 6.1160921 13.35674383 8 17 C8.04092937 19.33297433 8.04241723 21.66705225 8 24 C5 23 5 23 3.61328125 20.41015625 C0.88130124 13.37920469 -0.76758818 7.55647917 0 0 Z " fill="#050405" transform="translate(37,26)"/>
<path d="M0 0 C0.99 0.33 1.98 0.66 3 1 C3.02578125 1.6290625 3.0515625 2.258125 3.078125 2.90625 C3.66956859 11.83167138 6.95716441 17.79594916 12 25 C11.67 25.66 11.34 26.32 11 27 C9.76302083 25.47005208 8.52604167 23.94010417 7.2890625 22.41015625 C6.0333609 20.86733563 6.0333609 20.86733563 4 20 C2.6250851 17.09740189 2 15.23861295 2 12 C1.34 12 0.68 12 0 12 C-0.19573608 10.56359829 -0.38127816 9.12580496 -0.5625 7.6875 C-0.66691406 6.88699219 -0.77132813 6.08648437 -0.87890625 5.26171875 C-1 3 -1 3 0 0 Z " fill="#B99864" transform="translate(18,21)"/>
<path d="M0 0 C3.09585819 3.76523293 3.40286589 6.16533754 3.5625 11.0625 C3.6483549 16.37430558 3.6483549 16.37430558 6 21 C6.125 23.6875 6.125 23.6875 6 26 C3.5625 25.625 3.5625 25.625 1 25 C-0.27861615 22.44276771 -0.11336609 20.63262898 -0.09765625 17.7734375 C-0.09443359 16.7421875 -0.09121094 15.7109375 -0.08789062 14.6484375 C-0.07951172 13.56820312 -0.07113281 12.48796875 -0.0625 11.375 C-0.05798828 10.28703125 -0.05347656 9.1990625 -0.04882812 8.078125 C-0.03701776 5.38536211 -0.02054778 2.69270812 0 0 Z " fill="#C6A05F" transform="translate(81,51)"/>
<path d="M0 0 C0.69222656 0.08765625 1.38445313 0.1753125 2.09765625 0.265625 C3.9375 0.75 3.9375 0.75 5.9375 2.75 C5.5625 4.875 5.5625 4.875 4.9375 6.75 C3.6175 6.09 2.2975 5.43 0.9375 4.75 C0.9375 5.74 0.9375 6.73 0.9375 7.75 C-1.3725 7.75 -3.6825 7.75 -6.0625 7.75 C-6.3925 5.77 -6.7225 3.79 -7.0625 1.75 C-3.88217735 -0.3702151 -3.51682601 -0.4995865 0 0 Z " fill="#DD7822" transform="translate(39.0625,60.25)"/>
<path d="M0 0 C1 3 1 3 0.22265625 5.04296875 C-0.8515625 7.02864583 -1.92578125 9.01432292 -3 11 C-6.63 11 -10.26 11 -14 11 C-14.33 10.34 -14.66 9.68 -15 9 C-13.3125 6.9375 -13.3125 6.9375 -11 5 C-8.25 5.25 -8.25 5.25 -6 6 C-5.67 5.01 -5.34 4.02 -5 3 C-2.4375 1.3125 -2.4375 1.3125 0 0 Z " fill="#C46D2C" transform="translate(71,79)"/>
<path d="M0 0 C0.33 0 0.66 0 1 0 C1 3.63 1 7.26 1 11 C1.99 11 2.98 11 4 11 C4.66 10.01 5.32 9.02 6 8 C6.66 8 7.32 8 8 8 C8.33 7.34 8.66 6.68 9 6 C9.99 6.66 10.98 7.32 12 8 C12 9.32 12 10.64 12 12 C11.236875 11.9175 10.47375 11.835 9.6875 11.75 C8.3571875 11.87375 8.3571875 11.87375 7 12 C5.95374591 13.29735507 4.95298777 14.63266972 4 16 C1.8125 16.75 1.8125 16.75 0 17 C0 16.01 0 15.02 0 14 C-0.66 13.67 -1.32 13.34 -2 13 C-2.75 11.0625 -2.75 11.0625 -3 9 C-2.34 8.34 -1.68 7.68 -1 7 C-0.95919217 5.00041636 -0.95745644 2.99954746 -1 1 C-0.67 0.67 -0.34 0.34 0 0 Z " fill="#A74B1A" transform="translate(73,69)"/>
<path d="M0 0 C0 3.21534057 -0.26476072 4.35582586 -2 7 C-5.41369468 9.58333652 -7.7361901 10.36546942 -12 10 C-12.66 8.68 -13.32 7.36 -14 6 C-13.34 6 -12.68 6 -12 6 C-12.33 4.35 -12.66 2.7 -13 1 C-12.34 1 -11.68 1 -11 1 C-11 1.66 -11 2.32 -11 3 C-9.6078125 2.690625 -9.6078125 2.690625 -8.1875 2.375 C-5 2 -5 2 -2 4 C-1.34 2.68 -0.68 1.36 0 0 Z " fill="#292B2C" transform="translate(58,46)"/>
<path d="M0 0 C0.33 0 0.66 0 1 0 C1.33951619 1.56116819 1.67132544 3.12401338 2 4.6875 C2.185625 5.55761719 2.37125 6.42773438 2.5625 7.32421875 C2.98972047 9.93712964 3.07616201 12.35813038 3 15 C1.68 15 0.36 15 -1 15 C-1.33 15.99 -1.66 16.98 -2 18 C-2.66 18 -3.32 18 -4 18 C-4 14.37 -4 10.74 -4 7 C-3.01 6.67 -2.02 6.34 -1 6 C-0.67 4.02 -0.34 2.04 0 0 Z " fill="#756C5A" transform="translate(37,10)"/>
<path d="M0 0 C0 3.63 0 7.26 0 11 C-5 12 -5 12 -6.875 10.9375 C-8 9 -8 9 -8 6 C-7 3 -7 3 -4.5625 1.125 C-2 0 -2 0 0 0 Z " fill="#080808" transform="translate(53,3)"/>
<path d="M0 0 C0.66 0 1.32 0 2 0 C2.33 1.65 2.66 3.3 3 5 C2.34 5 1.68 5 1 5 C0.97421875 5.62648438 0.9484375 6.25296875 0.921875 6.8984375 C0.86515625 7.71570312 0.8084375 8.53296875 0.75 9.375 C0.68039063 10.59316406 0.68039063 10.59316406 0.609375 11.8359375 C0.40828125 12.55007812 0.2071875 13.26421875 0 14 C-1.984375 15.1015625 -1.984375 15.1015625 -4 16 C-4.33 16.99 -4.66 17.98 -5 19 C-7.0625 19.6875 -7.0625 19.6875 -9 20 C-8.625 18.0625 -8.625 18.0625 -8 16 C-7.34 15.67 -6.68 15.34 -6 15 C-3.07553274 10.31628291 -1.33142038 5.32568151 0 0 Z " fill="#423A2E" transform="translate(82,26)"/>
<path d="M0 0 C0.66 0.33 1.32 0.66 2 1 C2 8.59 2 16.18 2 24 C1.34 24 0.68 24 0 24 C-0.66 24.66 -1.32 25.32 -2 26 C-2.06058594 25.07058594 -2.12117188 24.14117187 -2.18359375 23.18359375 C-2.79571552 14.05853115 -2.79571552 14.05853115 -4 5 C-3.01 5.99 -2.02 6.98 -1 8 C-0.67 5.36 -0.34 2.72 0 0 Z " fill="#DC923C" transform="translate(80,50)"/>
<path d="M0 0 C2.625 0.375 2.625 0.375 5 1 C4.67 1.66 4.34 2.32 4 3 C3.34 3 2.68 3 2 3 C1.67 3.66 1.34 4.32 1 5 C0.34 5 -0.32 5 -1 5 C-1 5.99 -1 6.98 -1 8 C3.47883696 7.55296014 3.47883696 7.55296014 7 5 C7.6875 6.8125 7.6875 6.8125 8 9 C7.0625 10.8125 7.0625 10.8125 5 12 C2.23541287 11.94557899 -0.26105372 11.49390834 -3 11 C-2.88590407 9.54077307 -2.75834456 8.08259402 -2.625 6.625 C-2.55539063 5.81289062 -2.48578125 5.00078125 -2.4140625 4.1640625 C-2 2 -2 2 0 0 Z " fill="#CF8534" transform="translate(47,69)"/>
<path d="M0 0 C1.32 1.32 2.64 2.64 4 4 C3.01 4.495 3.01 4.495 2 5 C3.04874998 7.62187494 3.64931313 8.79371361 6.125 10.25 C6.74375 10.4975 7.3625 10.745 8 11 C8 11.66 8 12.32 8 13 C5.36 12.67 2.72 12.34 0 12 C0 11.34 0 10.68 0 10 C-1.423125 9.9071875 -1.423125 9.9071875 -2.875 9.8125 C-3.90625 9.544375 -4.9375 9.27625 -6 9 C-7.375 6.4375 -7.375 6.4375 -8 4 C-5.36 4.66 -2.72 5.32 0 6 C0 4.02 0 2.04 0 0 Z " fill="#8B3412" transform="translate(40,84)"/>
<path d="M0 0 C5.75 0.875 5.75 0.875 8 2 C8 2.66 8 3.32 8 4 C7.34 4.66 6.68 5.32 6 6 C4.68 6 3.36 6 2 6 C2.33 7.98 2.66 9.96 3 12 C4.98 12 6.96 12 9 12 C9 12.33 9 12.66 9 13 C7.35 13 5.7 13 4 13 C4 13.99 4 14.98 4 16 C2.68 16 1.36 16 0 16 C0 14.68 0 13.36 0 12 C-1.32 11.34 -2.64 10.68 -4 10 C-3.67 9.34 -3.34 8.68 -3 8 C-1.68 8.99 -0.36 9.98 1 11 C1.33 7.7 1.66 4.4 2 1 C1.34 0.67 0.68 0.34 0 0 Z " fill="#903E15" transform="translate(30,56)"/>
<path d="M0 0 C0.33 0.66 0.66 1.32 1 2 C1.66 2 2.32 2 3 2 C3.72497964 7.64368769 3.93874288 12.36754273 3 18 C3.63474075 19.34882408 4.29848848 20.6846659 5 22 C4.625 24.25 4.625 24.25 4 26 C4 25.01 4 24.02 4 23 C3.01 22.67 2.02 22.34 1 22 C-0.20029908 19.59940183 -0.11459743 18.10639351 -0.09765625 15.4296875 C-0.09443359 14.53378906 -0.09121094 13.63789062 -0.08789062 12.71484375 C-0.07951172 11.77769531 -0.07113281 10.84054688 -0.0625 9.875 C-0.05798828 8.93011719 -0.05347656 7.98523437 -0.04882812 7.01171875 C-0.03702357 4.67441613 -0.02055759 2.33723939 0 0 Z " fill="#FBF3CD" transform="translate(91,47)"/>
<path d="M0 0 C1.98 0.99 3.96 1.98 6 3 C6 6.96 6 10.92 6 15 C5.01 15.33 4.02 15.66 3 16 C2.87882812 15.21753906 2.75765625 14.43507813 2.6328125 13.62890625 C2.38144531 12.11103516 2.38144531 12.11103516 2.125 10.5625 C1.96257812 9.55316406 1.80015625 8.54382813 1.6328125 7.50390625 C1.42398438 6.67761719 1.21515625 5.85132813 1 5 C0.34 4.67 -0.32 4.34 -1 4 C-0.67 2.68 -0.34 1.36 0 0 Z " fill="#DFB66C" transform="translate(67,8)"/>
<path d="M0 0 C1.31471568 0.28151087 2.62675767 0.57553339 3.9375 0.875 C4.66839844 1.03742187 5.39929688 1.19984375 6.15234375 1.3671875 C8 2 8 2 9 4 C9.07181821 6.71760108 9.09299506 9.40859388 9.0625 12.125 C9.05798828 12.87910156 9.05347656 13.63320313 9.04882812 14.41015625 C9.03703499 16.27347127 9.01909942 18.13674555 9 20 C8.34 20 7.68 20 7 20 C6.15318867 14.91913204 5.90961901 10.15171623 6 5 C4.35 5 2.7 5 1 5 C0.67 3.35 0.34 1.7 0 0 Z " fill="#A59374" transform="translate(83,48)"/>
<path d="M0 0 C0.99 0.33 1.98 0.66 3 1 C4.79751401 6.39254202 4.70522993 11.32507891 2.5 16.5625 C2.005 17.366875 1.51 18.17125 1 19 C-0.53445094 15.93109813 0.45015711 13.29905734 1 10 C0.01 9.67 -0.98 9.34 -2 9 C-1.125 1.125 -1.125 1.125 0 0 Z " fill="#3F2E23" transform="translate(74,20)"/>
<path d="M0 0 C0.99 0 1.98 0 3 0 C3.33 0.99 3.66 1.98 4 3 C6.01508358 3.73323796 6.01508358 3.73323796 8 4 C8 5.32 8 6.64 8 8 C4.75 8.75 4.75 8.75 1 9 C-1.4375 7.1875 -1.4375 7.1875 -3 5 C-3 4.34 -3 3.68 -3 3 C-2.01 3 -1.02 3 0 3 C0 2.01 0 1.02 0 0 Z " fill="#68250C" transform="translate(57,65)"/>
<path d="M0 0 C0.598125 0.309375 1.19625 0.61875 1.8125 0.9375 C4.08956772 2.10209704 4.08956772 2.10209704 7 3 C7 3.66 7 4.32 7 5 C9.66065558 5.07601873 11.90689719 5.0232757 14.5 4.375 C17.5758862 3.91361707 19.24131338 4.6600665 22 6 C15.62301899 7.88722111 7.90975944 8.17048875 1.75 5.5 C0.8425 5.005 -0.065 4.51 -1 4 C-0.67 2.68 -0.34 1.36 0 0 Z " fill="#161619" transform="translate(34,51)"/>
<path d="M0 0 C0.33 0 0.66 0 1 0 C1 2.64 1 5.28 1 8 C1.66 8 2.32 8 3 8 C4.25664978 10.90600261 5 12.79604584 5 16 C5.99 16.33 6.98 16.66 8 17 C8.6875 19.0625 8.6875 19.0625 9 21 C5.66098159 20.07249489 4.0911505 19.10127833 1.75 16.5 C-0.47788507 12.04422986 -1.04269036 7.96062014 -1 3 C-0.67 2.01 -0.34 1.02 0 0 Z " fill="#261F19" transform="translate(17,25)"/>
<path d="M0 0 C-0.33 0.99 -0.66 1.98 -1 3 C-1.07029121 5.57265818 -1.09370832 8.11641431 -1.0625 10.6875 C-1.05798828 11.38939453 -1.05347656 12.09128906 -1.04882812 12.81445312 C-1.03706927 14.54300538 -1.01913454 16.27151365 -1 18 C-2.32 17.67 -3.64 17.34 -5 17 C-5.08097324 14.72975032 -5.13917704 12.45867925 -5.1875 10.1875 C-5.22230469 8.92292969 -5.25710937 7.65835937 -5.29296875 6.35546875 C-5 3 -5 3 -3.61328125 1.05078125 C-2 0 -2 0 0 0 Z " fill="#DDA557" transform="translate(32,11)"/>
<path d="M0 0 C0.99 0.33 1.98 0.66 3 1 C3 5.62 3 10.24 3 15 C2.01 15.33 1.02 15.66 0 16 C0 13.03 0 10.06 0 7 C-0.66 7 -1.32 7 -2 7 C-1.125 1.125 -1.125 1.125 0 0 Z " fill="#F28A1C" transform="translate(75,61)"/>
<path d="M0 0 C0.66 0.66 1.32 1.32 2 2 C1.690625 2.886875 1.38125 3.77375 1.0625 4.6875 C-0.57510414 10.30877947 -0.66774411 16.18552198 -1 22 C-1.66 22 -2.32 22 -3 22 C-5.46088368 14.30973849 -3.50079999 7.00159998 0 0 Z " fill="#FBF2CE" transform="translate(14,24)"/>
<path d="M0 0 C3 1 3 1 5 4 C4.87827371 10.93839863 2.33101723 16.00171067 -1 22 C-2.16896069 18.49311793 -1.74754734 17.64186884 -0.5625 14.25 C0.83313102 9.92354383 1.29466641 6.51821821 1 2 C0.34 1.67 -0.32 1.34 -1 1 C-0.67 0.67 -0.34 0.34 0 0 Z " fill="#352D27" transform="translate(61,24)"/>
<path d="M0 0 C0.33 1.32 0.66 2.64 1 4 C0.0409375 4.2165625 0.0409375 4.2165625 -0.9375 4.4375 C-2.97545146 4.81007181 -2.97545146 4.81007181 -4 6 C-4.23427778 8.01594582 -4.41336124 10.038474 -4.5625 12.0625 C-4.64628906 13.16722656 -4.73007812 14.27195312 -4.81640625 15.41015625 C-4.87699219 16.26480469 -4.93757813 17.11945312 -5 18 C-5.33 18 -5.66 18 -6 18 C-6.33 16.02 -6.66 14.04 -7 12 C-7.33 12.66 -7.66 13.32 -8 14 C-8.66 14 -9.32 14 -10 14 C-9.814375 13.38125 -9.62875 12.7625 -9.4375 12.125 C-8.76313824 9.95839822 -8.76313824 9.95839822 -10 8 C-9.34 8 -8.68 8 -8 8 C-7.79375 7.4225 -7.5875 6.845 -7.375 6.25 C-5.50249112 3.18589456 -3.03041481 1.84460032 0 0 Z " fill="#89795B" transform="translate(32,8)"/>
<path d="M0 0 C0.99 0.33 1.98 0.66 3 1 C3 1.66 3 2.32 3 3 C5.64 3 8.28 3 11 3 C11 4.98 11 6.96 11 9 C5.25 8.125 5.25 8.125 3 7 C3 6.34 3 5.68 3 5 C2.01 4.67 1.02 4.34 0 4 C0 2.68 0 1.36 0 0 Z " fill="#C96826" transform="translate(29,81)"/>
<path d="M0 0 C0.33 0.99 0.66 1.98 1 3 C-1.52053595 4.26026798 -2.8542098 3.91874445 -5.625 3.5625 C-6.85089844 3.40974609 -6.85089844 3.40974609 -8.1015625 3.25390625 C-9.04128906 3.12822266 -9.04128906 3.12822266 -10 3 C-10.33 2.01 -10.66 1.02 -11 0 C-6.7088439 -2.27178852 -4.37303149 -2.08712867 0 0 Z " fill="#BB5823" transform="translate(55,89)"/>
<path d="M0 0 C0.66 0 1.32 0 2 0 C2.27263672 1.04800781 2.27263672 1.04800781 2.55078125 2.1171875 C2.80214844 3.02726562 3.05351562 3.93734375 3.3125 4.875 C3.55613281 5.77992187 3.79976562 6.68484375 4.05078125 7.6171875 C4.86669852 10.32113319 4.86669852 10.32113319 8 12 C8.1875 14.625 8.1875 14.625 8 17 C7.34 17 6.68 17 6 17 C6 16.01 6 15.02 6 14 C5.01 14 4.02 14 3 14 C1.32421875 12.85546875 1.32421875 12.85546875 0 11 C-0.29296875 8.30078125 -0.29296875 8.30078125 -0.1875 5.3125 C-0.16042969 4.31863281 -0.13335938 3.32476562 -0.10546875 2.30078125 C-0.07066406 1.54152344 -0.03585938 0.78226563 0 0 Z " fill="#E67718" transform="translate(22,56)"/>
<path d="M0 0 C0.66 1.32 1.32 2.64 2 4 C2.66 4 3.32 4 4 4 C3.39174965 8.34464536 2.73832608 12.67551867 2 17 C1.67 16.34 1.34 15.68 1 15 C0.34 15 -0.32 15 -1 15 C-1.02703381 13.06257659 -1.04641125 11.12504521 -1.0625 9.1875 C-1.07410156 8.10855469 -1.08570312 7.02960937 -1.09765625 5.91796875 C-1 3 -1 3 0 0 Z " fill="#D89243" transform="translate(19,53)"/>
<path d="M0 0 C1.0209375 0.99 1.0209375 0.99 2.0625 2 C5.64457375 4.43885872 7.75519536 4.33292585 12 4 C10.68 4.33 9.36 4.66 8 5 C8 6.32 8 7.64 8 9 C9.32 9.33 10.64 9.66 12 10 C12 10.66 12 11.32 12 12 C9.69 11.67 7.38 11.34 5 11 C5 10.01 5 9.02 5 8 C4.34 8 3.68 8 3 8 C1.92474806 5.34771188 0.90543849 2.71631546 0 0 Z " fill="#CE6518" transform="translate(53,69)"/>
<path d="M0 0 C0.66 0.33 1.32 0.66 2 1 C2.59672183 8.51869512 1.14352972 12.74031045 -3 19 C-3.66 19 -4.32 19 -5 19 C-5.66 20.32 -6.32 21.64 -7 23 C-7.33 22.34 -7.66 21.68 -8 21 C-7.109375 19.51171875 -7.109375 19.51171875 -5.75 17.6875 C-2.15745666 12.27366728 -1.18174903 6.3026615 0 0 Z " fill="#C18B49" transform="translate(79,23)"/>
<path d="M0 0 C1.125 4.75 1.125 4.75 0 7 C-0.66 7 -1.32 7 -2 7 C-2.33 7.66 -2.66 8.32 -3 9 C-4.32 8.67 -5.64 8.34 -7 8 C-6.75 5.125 -6.75 5.125 -6 2 C-3.84139132 0.46808416 -2.63707871 0 0 0 Z " fill="#A57C4F" transform="translate(20,68)"/>
<path d="M0 0 C3.96 0.33 7.92 0.66 12 1 C12 1.66 12 2.32 12 3 C13.918125 2.938125 13.918125 2.938125 15.875 2.875 C18.0546875 2.8046875 18.0546875 2.8046875 20 3 C20.66 3.66 21.32 4.32 22 5 C13.68708202 5.26390216 6.81034337 5.10775753 0 0 Z " fill="#F7EECC" transform="translate(33,95)"/>
<path d="M0 0 C0.33 0 0.66 0 1 0 C1.0809723 2.43816585 1.14046972 4.87364384 1.1875 7.3125 C1.22520508 8.34793945 1.22520508 8.34793945 1.26367188 9.40429688 C1.33821054 14.54746477 1.33821054 14.54746477 -0.38671875 16.85546875 C-0.91910156 17.23316406 -1.45148438 17.61085938 -2 18 C-2.66 18.66 -3.32 19.32 -4 20 C-4 19.34 -4 18.68 -4 18 C-4.99 18.33 -5.98 18.66 -7 19 C-6.67 15.7 -6.34 12.4 -6 9 C-5.67 9 -5.34 9 -5 9 C-5 10.98 -5 12.96 -5 15 C-3.68 14.67 -2.36 14.34 -1 14 C-0.67 9.38 -0.34 4.76 0 0 Z " fill="#C06421" transform="translate(80,62)"/>
<path d="M0 0 C0.66 0 1.32 0 2 0 C2.21755666 5.4389165 2.10428384 9.87080814 0 15 C-2 13 -2 13 -2.265625 10.72265625 C-2.26046875 9.84480469 -2.2553125 8.96695313 -2.25 8.0625 C-2.25515625 7.18722656 -2.2603125 6.31195313 -2.265625 5.41015625 C-2 3 -2 3 0 0 Z " fill="#7C776C" transform="translate(15,30)"/>
<path d="M0 0 C0.99 0.33 1.98 0.66 3 1 C3 1.66 3 2.32 3 3 C4.32 3 5.64 3 7 3 C7.66 4.32 8.32 5.64 9 7 C7 8 7 8 4.5 7.9375 C1.82346261 7.71706155 1.82346261 7.71706155 0 10 C-1.231394 6.30581799 -0.64432764 3.7943739 0 0 Z " fill="#7C735F" transform="translate(45,13)"/>
<path d="M0 0 C-0.33 2.97 -0.66 5.94 -1 9 C0.32 9 1.64 9 3 9 C3 9.66 3 10.32 3 11 C1.1875 11.625 1.1875 11.625 -1 12 C-4 10 -4 10 -4.3984375 8.125 C-4.39070313 7.42375 -4.38296875 6.7225 -4.375 6 C-4.38273437 5.29875 -4.39046875 4.5975 -4.3984375 3.875 C-3.89872811 1.5234264 -2.6914025 0 0 0 Z " fill="#E57818" transform="translate(45,71)"/>
<path d="M0 0 C1.32 0 2.64 0 4 0 C3.67 0.66 3.34 1.32 3 2 C2.34 1.67 1.68 1.34 1 1 C1.28080635 7.59894933 2.46465123 12.87061282 5.2578125 18.87109375 C6 21 6 21 5 24 C3.5393715 21.35261084 3 20.10551666 3 17 C2.34 17 1.68 17 1 17 C-0.88341198 10.90660831 -1.0748291 6.27467799 0 0 Z " fill="#272424" transform="translate(36,25)"/>
<path d="M0 0 C0.99 0.33 1.98 0.66 3 1 C2.34 1 1.68 1 1 1 C0.34 2.65 -0.32 4.3 -1 6 C-1.66 6 -2.32 6 -3 6 C-3.12117188 6.63808594 -3.24234375 7.27617187 -3.3671875 7.93359375 C-3.53476562 8.75988281 -3.70234375 9.58617187 -3.875 10.4375 C-4.03742187 11.26121094 -4.19984375 12.08492187 -4.3671875 12.93359375 C-4.57601563 13.61550781 -4.78484375 14.29742187 -5 15 C-5.99 15.495 -5.99 15.495 -7 16 C-6.814375 15.05125 -6.62875 14.1025 -6.4375 13.125 C-5.71313368 10.10131207 -5.71313368 10.10131207 -7 8 C-6.67 7.34 -6.34 6.68 -6 6 C-5.34 6 -4.68 6 -4 6 C-3.896875 5.38125 -3.79375 4.7625 -3.6875 4.125 C-3 2 -3 2 0 0 Z " fill="#E9DFBD" transform="translate(21,15)"/>
<path d="M0 0 C4.75 0.75 4.75 0.75 7 3 C7.1953125 5.8203125 7.1953125 5.8203125 7.125 9.125 C7.10695313 10.22070312 7.08890625 11.31640625 7.0703125 12.4453125 C7.04710937 13.28835937 7.02390625 14.13140625 7 15 C6.34 15 5.68 15 5 15 C4.97421875 14.39671875 4.9484375 13.7934375 4.921875 13.171875 C4.62611413 7.93018499 4.62611413 7.93018499 1.9375 3.5625 C1.298125 3.046875 0.65875 2.53125 0 2 C0 1.34 0 0.68 0 0 Z " fill="#D98A3A" transform="translate(54,5)"/>
<path d="M0 0 C-0.33 1.32 -0.66 2.64 -1 4 C-4.57644848 5.2380014 -7.33694766 4.74926071 -11 4 C-11 3.01 -11 2.02 -11 1 C-7.26562152 0.12132271 -3.83225427 -0.08912219 0 0 Z " fill="#612008" transform="translate(45,68)"/>
<path d="M0 0 C0.66 0.99 1.32 1.98 2 3 C1.67 3.99 1.34 4.98 1 6 C0.34 6 -0.32 6 -1 6 C-1.226875 6.70125 -1.45375 7.4025 -1.6875 8.125 C-3.33841288 11.74128535 -5.2908835 14.08769976 -8 17 C-8.66 17 -9.32 17 -10 17 C-9.505 15.515 -9.505 15.515 -9 14 C-8.34 14 -7.68 14 -7 14 C-6.773125 13.360625 -6.54625 12.72125 -6.3125 12.0625 C-4.51434174 7.86679739 -2.26095979 3.96099444 0 0 Z " fill="#804522" transform="translate(63,39)"/>
<path d="M0 0 C0.33 0 0.66 0 1 0 C1 3.96 1 7.92 1 12 C1.99 11.67 2.98 11.34 4 11 C2.515 16.94 2.515 16.94 1 23 C-1.18185426 19.72721861 -1.21432326 19.0648752 -0.9765625 15.33203125 C-0.925 14.43935547 -0.8734375 13.54667969 -0.8203125 12.62695312 C-0.75585938 11.69818359 -0.69140625 10.76941406 -0.625 9.8125 C-0.56828125 8.87212891 -0.5115625 7.93175781 -0.453125 6.96289062 C-0.31169923 4.64115091 -0.1602967 2.3205007 0 0 Z " fill="#30302D" transform="translate(53,24)"/>
<path d="M0 0 C2 2 2 2 2.1953125 4.1640625 C2.16050781 5.38222656 2.16050781 5.38222656 2.125 6.625 C2.10695312 7.44226563 2.08890625 8.25953125 2.0703125 9.1015625 C2.04710937 9.72804688 2.02390625 10.35453125 2 11 C4.97 11.495 4.97 11.495 8 12 C8 13.32 8 14.64 8 16 C5.69 15.67 3.38 15.34 1 15 C0.67 10.05 0.34 5.1 0 0 Z " fill="#9D734C" transform="translate(57,9)"/>
<path d="M0 0 C0 1.65 0 3.3 0 5 C-0.99 5 -1.98 5 -3 5 C-3.33 6.98 -3.66 8.96 -4 11 C-4.99 11 -5.98 11 -7 11 C-7.75 9.3125 -7.75 9.3125 -8 7 C-3.33333333 0 -3.33333333 0 0 0 Z " fill="#2A221C" transform="translate(17,65)"/>
<path d="M0 0 C3 1.375 3 1.375 6 4 C6.5412406 7.3854069 6.35042185 10.59961015 6 14 C3.8480563 10.77208445 3.79913557 9.71599191 4 6 C1.66924071 6.95865509 1.66924071 6.95865509 0 10 C0 6.7 0 3.4 0 0 Z " fill="#8F3811" transform="translate(20,50)"/>
<path d="M0 0 C1.65 0 3.3 0 5 0 C4.67 3.63 4.34 7.26 4 11 C3.01 11 2.02 11 1 11 C0.67 7.37 0.34 3.74 0 0 Z " fill="#66331A" transform="translate(12,53)"/>
<path d="M0 0 C0.66 0 1.32 0 2 0 C3.2020202 7.21212121 3.2020202 7.21212121 2.375 10.4375 C0.47432396 12.59735914 -1.20399951 12.70568416 -4 13 C-3.2884375 11.7315625 -3.2884375 11.7315625 -2.5625 10.4375 C-0.94278487 6.87412671 -0.38743857 3.87438575 0 0 Z " fill="#E9E0BF" transform="translate(93,70)"/>
<path d="M0 0 C0.33 0 0.66 0 1 0 C1 3.63 1 7.26 1 11 C3.475 11.99 3.475 11.99 6 13 C6 15.31 6 17.62 6 20 C5.34 20 4.68 20 4 20 C4 18.35 4 16.7 4 15 C2.68 14.34 1.36 13.68 0 13 C0 8.71 0 4.42 0 0 Z " fill="#1F1410" transform="translate(84,56)"/>
<path d="M0 0 C0.33 0 0.66 0 1 0 C1 2.97 1 5.94 1 9 C0.01 8.01 -0.98 7.02 -2 6 C-2 7.98 -2 9.96 -2 12 C-2.66 12 -3.32 12 -4 12 C-4.66 12.66 -5.32 13.32 -6 14 C-5.67 11.03 -5.34 8.06 -5 5 C-3.35 4.67 -1.7 4.34 0 4 C0 2.68 0 1.36 0 0 Z " fill="#A34A16" transform="translate(79,50)"/>
<path d="M0 0 C1.65 0 3.3 0 5 0 C3.828125 6.0546875 3.828125 6.0546875 3 8 C1.02 8.99 1.02 8.99 -1 10 C-0.67 6.7 -0.34 3.4 0 0 Z " fill="#0B0A09" transform="translate(33,8)"/>
<path d="M0 0 C1.32 0.66 2.64 1.32 4 2 C4 3.32 4 4.64 4 6 C3.2575 5.9175 2.515 5.835 1.75 5.75 C-1.78157027 6.07105184 -2.76630364 7.35265617 -5 10 C-4.1875 6.5625 -4.1875 6.5625 -3 3 C-2.01 2.67 -1.02 2.34 0 2 C0 1.34 0 0.68 0 0 Z " fill="#513324" transform="translate(81,75)"/>
<path d="M0 0 C0.66 0 1.32 0 2 0 C2 1.65 2 3.3 2 5 C2.99 5 3.98 5 5 5 C5.33 4.34 5.66 3.68 6 3 C6.1875 5.375 6.1875 5.375 6 8 C3 10 3 10 -1 10 C-1 8.68 -1 7.36 -1 6 C-0.34 6 0.32 6 1 6 C0.67 4.02 0.34 2.04 0 0 Z " fill="#805C3E" transform="translate(86,71)"/>
<path d="M0 0 C3.93846154 3.32307692 3.93846154 3.32307692 4.25 6.75 C4.1675 7.4925 4.085 8.235 4 9 C1.5625 8.625 1.5625 8.625 -1 8 C-2 6 -2 6 -1.0625 2.875 C-0.5365625 1.451875 -0.5365625 1.451875 0 0 Z " fill="#776045" transform="translate(83,68)"/>
<path d="M0 0 C4 4 4 4 5.625 5.6875 C6.98621473 7.11564313 6.98621473 7.11564313 9 8 C9 8.66 9 9.32 9 10 C9.66 10.33 10.32 10.66 11 11 C7.4257023 10.67506385 5.44287547 10.36129314 2.625 8.0625 C1 6 1 6 1 4 C0.01 4.33 -0.98 4.66 -2 5 C-1.34 3.35 -0.68 1.7 0 0 Z " fill="#4A4845" transform="translate(17,38)"/>
<path d="M0 0 C0.66 0.33 1.32 0.66 2 1 C1.34 2.32 0.68 3.64 0 5 C0.66 5 1.32 5 2 5 C2.33 4.34 2.66 3.68 3 3 C2.66666667 4.66666667 2.33333333 6.33333333 2 8 C1.835 8.845625 1.67 9.69125 1.5 10.5625 C1.05603875 12.72681111 0.55437257 14.86170582 0 17 C-1.32336149 14.35327702 -1.41270467 12.00673569 -1.6875 9.0625 C-1.79449219 8.00160156 -1.90148437 6.94070312 -2.01171875 5.84765625 C-2 3 -2 3 0 0 Z " fill="#4E4537" transform="translate(22,17)"/>
<path d="M0 0 C1.953125 0.6796875 1.953125 0.6796875 4 2 C4.609375 4.3828125 4.609375 4.3828125 4.75 7.125 C4.80671875 8.03507813 4.8634375 8.94515625 4.921875 9.8828125 C4.94765625 10.58148438 4.9734375 11.28015625 5 12 C4.01 11.67 3.02 11.34 2 11 C2 10.01 2 9.02 2 8 C1.34 7.67 0.68 7.34 0 7 C0 4.69 0 2.38 0 0 Z " fill="#4C453C" transform="translate(53,6)"/>
<path d="M0 0 C0 0.66 0 1.32 0 2 C1.65 2 3.3 2 5 2 C5.33 2.99 5.66 3.98 6 5 C4 6 4 6 1.65234375 5.29296875 C0.30849609 4.74576172 0.30849609 4.74576172 -1.0625 4.1875 C-1.96097656 3.83042969 -2.85945313 3.47335938 -3.78515625 3.10546875 C-6 2 -6 2 -7 0 C-3.98968256 -0.93423645 -3.13349732 -1.04449911 0 0 Z " fill="#E0D7B8" transform="translate(64,3)"/>
<path d="M0 0 C2.625 0.375 2.625 0.375 5 1 C4.67 1.66 4.34 2.32 4 3 C3.34 3 2.68 3 2 3 C1.67 3.66 1.34 4.32 1 5 C0.34 5 -0.32 5 -1 5 C-0.34 6.98 0.32 8.96 1 11 C-0.32 11 -1.64 11 -3 11 C-2.88590407 9.54077307 -2.75834456 8.08259402 -2.625 6.625 C-2.55539063 5.81289062 -2.48578125 5.00078125 -2.4140625 4.1640625 C-2 2 -2 2 0 0 Z " fill="#DA9536" transform="translate(47,69)"/>
<path d="M0 0 C0.66 0 1.32 0 2 0 C2.33 2.64 2.66 5.28 3 8 C3.33 8 3.66 8 4 8 C4.33 6.35 4.66 4.7 5 3 C5.33 3 5.66 3 6 3 C6.125 5.875 6.125 5.875 6 9 C5.34 9.66 4.68 10.32 4 11 C3.01 11 2.02 11 1 11 C0.67 7.37 0.34 3.74 0 0 Z " fill="#B17341" transform="translate(11,56)"/>
<path d="M0 0 C2 2 2 2 2 5 C3.65 5 5.3 5 7 5 C6.67 5.99 6.34 6.98 6 8 C5.34 7.67 4.68 7.34 4 7 C4.309375 8.1446875 4.309375 8.1446875 4.625 9.3125 C5 12 5 12 3 15 C2.87625 13.906875 2.7525 12.81375 2.625 11.6875 C2.24535199 7.92618198 2.24535199 7.92618198 0 5 C-0.125 2.3125 -0.125 2.3125 0 0 Z " fill="#62341F" transform="translate(82,48)"/>
<path d="M0 0 C2.97 0.33 5.94 0.66 9 1 C9 1.66 9 2.32 9 3 C9.99 3.33 10.98 3.66 12 4 C9 5 9 5 6.8125 4.0625 C6.214375 3.711875 5.61625 3.36125 5 3 C5 3.66 5 4.32 5 5 C3.68 5 2.36 5 1 5 C1 4.34 1 3.68 1 3 C0.34 3 -0.32 3 -1 3 C-0.67 2.01 -0.34 1.02 0 0 Z " fill="#302F2F" transform="translate(29,49)"/>
<path d="M0 0 C0.99 0.33 1.98 0.66 3 1 C3.99 0.67 4.98 0.34 6 0 C6.33 0.99 6.66 1.98 7 3 C8.32 3 9.64 3 11 3 C11 3.66 11 4.32 11 5 C7.37 5 3.74 5 0 5 C0 3.35 0 1.7 0 0 Z " fill="#4F4033" transform="translate(26,45)"/>
<path d="M0 0 C2 0 2 0 4.125 1.875 C6 4 6 4 6 6 C4.02 6.99 4.02 6.99 2 8 C2 8.66 2 9.32 2 10 C1.34 9.67 0.68 9.34 0 9 C-0.44921875 7.1875 -0.44921875 7.1875 -0.6875 5 C-0.77386719 4.278125 -0.86023437 3.55625 -0.94921875 2.8125 C-0.96597656 2.214375 -0.98273437 1.61625 -1 1 C-0.67 0.67 -0.34 0.34 0 0 Z " fill="#2B2725" transform="translate(16,42)"/>
<path d="M0 0 C2.18115464 2.18115464 3.45133533 4.33629676 5 7 C5.86625 8.3303125 5.86625 8.3303125 6.75 9.6875 C7.36875 10.8321875 7.36875 10.8321875 8 12 C7.67 12.66 7.34 13.32 7 14 C5.76302083 12.47005208 4.52604167 10.94010417 3.2890625 9.41015625 C2.0333609 7.86733563 2.0333609 7.86733563 0 7 C-1.09036928 4.0262656 -1.03864166 3.11592499 0 0 Z " fill="#AD5E25" transform="translate(22,34)"/>
<path d="M0 0 C4 0 4 0 5.75 1.3125 C7 3 7 3 7 6 C5.02 6 3.04 6 1 6 C0.67 4.02 0.34 2.04 0 0 Z " fill="#EDC772" transform="translate(32,62)"/>
<path d="M0 0 C0.99 0 1.98 0 3 0 C2.67 3.3 2.34 6.6 2 10 C1.01 9.67 0.02 9.34 -1 9 C-1.09765625 2.84765625 -1.09765625 2.84765625 -1 1 C-0.67 0.67 -0.34 0.34 0 0 Z " fill="#330D03" transform="translate(29,57)"/>
<path d="M0 0 C0.66 0.33 1.32 0.66 2 1 C2.08082094 2.95766281 2.13910778 4.91626728 2.1875 6.875 C2.23970703 8.51082031 2.23970703 8.51082031 2.29296875 10.1796875 C2.19628906 11.11039063 2.09960938 12.04109375 2 13 C1.01 13.66 0.02 14.32 -1 15 C-0.67 10.05 -0.34 5.1 0 0 Z " fill="#F8F0D3" transform="translate(88,31)"/>
<path d="M0 0 C0.99 0.33 1.98 0.66 3 1 C2.67 1.99 2.34 2.98 2 4 C2.66 4 3.32 4 4 4 C4 5.98 4 7.96 4 10 C1 9 1 9 -0.25 7.25 C-1.17574966 4.47275102 -0.77341204 2.78428335 0 0 Z " fill="#100E0D" transform="translate(64,8)"/>
<path d="M0 0 C0 2 0 2 -1.75 4.1875 C-2.4925 4.785625 -3.235 5.38375 -4 6 C-6.25 5.75 -6.25 5.75 -8 5 C-8 3.68 -8 2.36 -8 1 C-5.10765685 0.17361624 -3.11257569 0 0 0 Z " fill="#ED9224" transform="translate(69,73)"/>
<path d="M0 0 C0.33 0 0.66 0 1 0 C0.33333333 5.33333333 -0.33333333 10.66666667 -1 16 C-1.66 15.67 -2.32 15.34 -3 15 C-3.56229448 4.27475338 -3.56229448 4.27475338 0 0 Z " fill="#D8D1B2" transform="translate(9,61)"/>
<path d="M0 0 C3.48331435 3.01887244 4.79157144 5.56909529 6 10 C3.625 9.4375 3.625 9.4375 1 8 C-0.3125 4.375 -0.3125 4.375 -1 1 C-0.67 0.67 -0.34 0.34 0 0 Z " fill="#5D2F1A" transform="translate(28,82)"/>
<path d="M0 0 C2.0625 1.75 2.0625 1.75 4 4 C3.75 6.25 3.75 6.25 3 8 C3 7.34 3 6.68 3 6 C1.02 6.33 -0.96 6.66 -3 7 C-3 6.01 -3 5.02 -3 4 C-2.34 4 -1.68 4 -1 4 C-0.67 2.68 -0.34 1.36 0 0 Z " fill="#482714" transform="translate(49,70)"/>
<path d="M0 0 C1.31571603 0.2547514 2.62760376 0.52934141 3.9375 0.8125 C4.66839844 0.96332031 5.39929688 1.11414062 6.15234375 1.26953125 C6.76207031 1.51058594 7.37179688 1.75164063 8 2 C8.33 2.99 8.66 3.98 9 5 C6.36 5 3.72 5 1 5 C0.67 3.35 0.34 1.7 0 0 Z " fill="#AB916A" transform="translate(83,48)"/>
<path d="M0 0 C-0.33 1.65 -0.66 3.3 -1 5 C-1.66 5 -2.32 5 -3 5 C-3.33 5.99 -3.66 6.98 -4 8 C-6.0625 8.6875 -6.0625 8.6875 -8 9 C-7.53918323 4.85264908 -4.48412936 0 0 0 Z " fill="#170F0A" transform="translate(81,37)"/>
<path d="M0 0 C-0.33 1.65 -0.66 3.3 -1 5 C-2.65 5.33 -4.3 5.66 -6 6 C-6 4.68 -6 3.36 -6 2 C-3 0 -3 0 0 0 Z " fill="#F2D586" transform="translate(67,62)"/>
<path d="M0 0 C0.66 0 1.32 0 2 0 C1.34 2.31 0.68 4.62 0 7 C-2.64 6.67 -5.28 6.34 -8 6 C-5.37801226 3.84622436 -3.35595828 2.59927826 0 2 C0 1.34 0 0.68 0 0 Z " fill="#743015" transform="translate(68,54)"/>
<path d="M0 0 C1.485 0.99 1.485 0.99 3 2 C3 1.34 3 0.68 3 0 C3.66 0 4.32 0 5 0 C8.125 6.625 8.125 6.625 7 10 C6.67 9.01 6.34 8.02 6 7 C5.0409375 6.566875 5.0409375 6.566875 4.0625 6.125 C1.28319146 4.60901352 0.92884019 2.94132727 0 0 Z " fill="#85481D" transform="translate(34,42)"/>
<path d="M0 0 C0 3.3 0 6.6 0 10 C-0.99 10.495 -0.99 10.495 -2 11 C-3.60725635 7.78548731 -3.05748185 4.56387464 -3 1 C-1 0 -1 0 0 0 Z " fill="#B19C79" transform="translate(45,21)"/>
<path d="M0 0 C0.66 0 1.32 0 2 0 C2.14285714 8.57142857 2.14285714 8.57142857 1 12 C0.34 12 -0.32 12 -1 12 C-1.14285714 3.42857143 -1.14285714 3.42857143 0 0 Z " fill="#513C2E" transform="translate(42,9)"/>
<path d="M0 0 C1.51400391 0.01740234 1.51400391 0.01740234 3.05859375 0.03515625 C4.07050781 0.04417969 5.08242188 0.05320313 6.125 0.0625 C7.29869141 0.07990234 7.29869141 0.07990234 8.49609375 0.09765625 C8.82609375 0.75765625 9.15609375 1.41765625 9.49609375 2.09765625 C8.50609375 2.09765625 7.51609375 2.09765625 6.49609375 2.09765625 C6.16609375 2.75765625 5.83609375 3.41765625 5.49609375 4.09765625 C5.49609375 3.10765625 5.49609375 2.11765625 5.49609375 1.09765625 C4.83609375 1.75765625 4.17609375 2.41765625 3.49609375 3.09765625 C1.37109375 3.72265625 1.37109375 3.72265625 -0.50390625 4.09765625 C-0.50390625 3.43765625 -0.50390625 2.77765625 -0.50390625 2.09765625 C-1.49390625 1.76765625 -2.48390625 1.43765625 -3.50390625 1.09765625 C-2.50390625 0.09765625 -2.50390625 0.09765625 0 0 Z " fill="#7E7868" transform="translate(47.50390625,1.90234375)"/>
<path d="M0 0 C5.94 2.475 5.94 2.475 12 5 C12 5.66 12 6.32 12 7 C3.69377787 6.65173073 3.69377787 6.65173073 0.9375 4.0625 C0 2 0 2 0 0 Z " fill="#D1C9AB" transform="translate(28,89)"/>
<path d="M0 0 C0.66 0.33 1.32 0.66 2 1 C1.34 2.32 0.68 3.64 0 5 C-0.69867188 4.91621094 -1.39734375 4.83242187 -2.1171875 4.74609375 C-3.02726562 4.64425781 -3.93734375 4.54242188 -4.875 4.4375 C-5.77992187 4.33308594 -6.68484375 4.22867188 -7.6171875 4.12109375 C-10.01653057 3.80325148 -10.01653057 3.80325148 -12 5 C-11.34 3.68 -10.68 2.36 -10 1 C-9.36191406 1.01160156 -8.72382812 1.02320312 -8.06640625 1.03515625 C-7.24011719 1.04417969 -6.41382812 1.05320312 -5.5625 1.0625 C-4.32693359 1.07990234 -4.32693359 1.07990234 -3.06640625 1.09765625 C-1.00836062 1.23267348 -1.00836062 1.23267348 0 0 Z " fill="#D2CBAD" transform="translate(90,79)"/>
<path d="M0 0 C3 3.75 3 3.75 3 6 C2.01 6 1.02 6 0 6 C0 6.66 0 7.32 0 8 C-1.65 8 -3.3 8 -5 8 C-5 7.34 -5 6.68 -5 6 C-4.34 6 -3.68 6 -3 6 C-3 5.34 -3 4.68 -3 4 C-2.01 4 -1.02 4 0 4 C0 2.68 0 1.36 0 0 Z " fill="#5C2E1B" transform="translate(17,73)"/>
<path d="M0 0 C0.66 0.66 1.32 1.32 2 2 C4.65537372 2.56520003 7.29144713 2.73788198 10 3 C10 3.33 10 3.66 10 4 C7.87506859 4.02693575 5.75004088 4.04636628 3.625 4.0625 C2.44164062 4.07410156 1.25828125 4.08570313 0.0390625 4.09765625 C-3 4 -3 4 -5 3 C-5 2.34 -5 1.68 -5 1 C-2.625 0.375 -2.625 0.375 0 0 Z " fill="#210F0B" transform="translate(47,57)"/>
<path d="M0 0 C1.76094117 1.02156019 3.47187493 2.12809491 5.17578125 3.2421875 C5.17578125 3.9021875 5.17578125 4.5621875 5.17578125 5.2421875 C2.53578125 4.9121875 -0.10421875 4.5821875 -2.82421875 4.2421875 C-2.82421875 3.5821875 -2.82421875 2.9221875 -2.82421875 2.2421875 C-3.81421875 1.9121875 -4.80421875 1.5821875 -5.82421875 1.2421875 C-3.71823965 -0.44259578 -2.55921503 -1.06314286 0 0 Z " fill="#684835" transform="translate(42.82421875,91.7578125)"/>
<path d="M0 0 C0.33 0.66 0.66 1.32 1 2 C2.32 2 3.64 2 5 2 C5.33 3.98 5.66 5.96 6 8 C3.5625 7.375 3.5625 7.375 1 6 C0.1875 2.875 0.1875 2.875 0 0 Z " fill="#250C06" transform="translate(28,74)"/>
<path d="M0 0 C2.31 0.33 4.62 0.66 7 1 C6.67 2.65 6.34 4.3 6 6 C5.01 6 4.02 6 3 6 C3 5.34 3 4.68 3 4 C2.01 3.67 1.02 3.34 0 3 C0 2.01 0 1.02 0 0 Z " fill="#F08E1E" transform="translate(32,73)"/>
<path d="M0 0 C0.66 0.33 1.32 0.66 2 1 C2 3.64 2 6.28 2 9 C0.68 8.34 -0.64 7.68 -2 7 C-1.125 1.125 -1.125 1.125 0 0 Z " fill="#EB7517" transform="translate(75,61)"/>
<path d="M0 0 C0.66 0 1.32 0 2 0 C2 0.66 2 1.32 2 2 C3.32 2.33 4.64 2.66 6 3 C6 3.99 6 4.98 6 6 C3.69 5.67 1.38 5.34 -1 5 C-0.67 3.35 -0.34 1.7 0 0 Z " fill="#E9E1BC" transform="translate(85,44)"/>
<path d="M0 0 C2.625 -0.1875 2.625 -0.1875 5 0 C3.7934375 0.86625 3.7934375 0.86625 2.5625 1.75 C-1.55042128 5.73511864 -0.90575435 11.62799777 -1 17 C-1.33 17 -1.66 17 -2 17 C-2.05398987 14.72942623 -2.09278742 12.45848712 -2.125 10.1875 C-2.14820313 8.92292969 -2.17140625 7.65835937 -2.1953125 6.35546875 C-2 3 -2 3 0 0 Z " fill="#2D2B28" transform="translate(47,20)"/>
<path d="M0 0 C4.3177458 0.50797009 8.03302114 1.19682779 12 3 C11.67 3.99 11.34 4.98 11 6 C10.34 6 9.68 6 9 6 C8.67 6.99 8.34 7.98 8 9 C7.690625 7.8553125 7.690625 7.8553125 7.375 6.6875 C5.57929296 3.17770897 3.56863688 2.47400219 0 1 C0 0.67 0 0.34 0 0 Z " fill="#4B473D" transform="translate(54,4)"/>
<path d="M0 0 C-0.33 1.32 -0.66 2.64 -1 4 C-2.65 4 -4.3 4 -6 4 C-5.67 6.31 -5.34 8.62 -5 11 C-5.66 11 -6.32 11 -7 11 C-7.79953138 7.71303767 -8.09658936 6.28976808 -7 3 C-2.66666667 -0 -2.66666667 -0 0 0 Z " fill="#2C2B26" transform="translate(53,3)"/>
<path d="M0 0 C1.28813232 3.86439695 0.77385151 5.375173 -1 9 C-4.125 10.375 -4.125 10.375 -7 11 C-6.401875 10.113125 -5.80375 9.22625 -5.1875 8.3125 C-3.38159753 5.57784769 -1.66104089 2.82376952 0 0 Z " fill="#35271F" transform="translate(62,45)"/>
<path d="M0 0 C0.33 0 0.66 0 1 0 C1.08142927 1.7492214 1.13938541 3.49954542 1.1875 5.25 C1.22230469 6.22453125 1.25710937 7.1990625 1.29296875 8.203125 C0.96075202 11.37468742 0.11327721 12.67040307 -2 15 C-2.66 13.35 -3.32 11.7 -4 10 C-3.01 9.67 -2.02 9.34 -1 9 C-0.67 6.03 -0.34 3.06 0 0 Z " fill="#43413B" transform="translate(85,33)"/>
<path d="M0 0 C0.33 0.99 0.66 1.98 1 3 C1.99 2.67 2.98 2.34 4 2 C3.67 3.98 3.34 5.96 3 8 C1.68 8 0.36 8 -1 8 C-0.67 5.36 -0.34 2.72 0 0 Z " fill="#EAD688" transform="translate(69,21)"/>
<path d="M0 0 C2.64 0 5.28 0 8 0 C6.1875 1.0625 6.1875 1.0625 4 2 C3.01 1.67 2.02 1.34 1 1 C0.67 2.32 0.34 3.64 0 5 C-1.65 4.67 -3.3 4.34 -5 4 C-5 3.01 -5 2.02 -5 1 C-3.68 1.33 -2.36 1.66 -1 2 C-0.67 1.34 -0.34 0.68 0 0 Z " fill="#923A10" transform="translate(45,64)"/>
<path d="M0 0 C1.06671952 3.20015856 0.94845472 4.88544294 0.5625 8.1875 C0.46066406 9.08855469 0.35882813 9.98960938 0.25390625 10.91796875 C0.17011719 11.60503906 0.08632812 12.29210938 0 13 C-2.13586678 9.79619983 -2.23132175 8.98060033 -2.125 5.3125 C-2.10695313 4.50425781 -2.08890625 3.69601563 -2.0703125 2.86328125 C-2.04710938 2.24839844 -2.02390625 1.63351563 -2 1 C-1.34 0.67 -0.68 0.34 0 0 Z " fill="#877F70" transform="translate(85,30)"/>
<path d="M0 0 C-1.41519715 2.0343459 -2.54982123 2.90410393 -4.98046875 3.421875 C-6.98176954 3.66273952 -8.9909944 3.83532741 -11 4 C-10.67 3.01 -10.34 2.02 -10 1 C-6.76421296 -0.31828361 -3.44785988 -0.07836045 0 0 Z " fill="#705645" transform="translate(64,93)"/>
<path d="M0 0 C-4.29 0.66 -8.58 1.32 -13 2 C-11 -1 -11 -1 -7.625 -1.8125 C-4 -2 -4 -2 0 0 Z " fill="#6E3821" transform="translate(69,92)"/>
<path d="M0 0 C5.53846154 0.61538462 5.53846154 0.61538462 7.875 2.5625 C8.431875 3.2740625 8.431875 3.2740625 9 4 C8.67 4.99 8.34 5.98 8 7 C6.66382648 6.02471263 5.3311249 5.04466681 4 4.0625 C3.2575 3.51722656 2.515 2.97195312 1.75 2.41015625 C1.1725 1.94480469 0.595 1.47945313 0 1 C0 0.67 0 0.34 0 0 Z " fill="#F8F2D3" transform="translate(22,88)"/>
<path d="M0 0 C2 3 2 3 2 6 C0.02 6.33 -1.96 6.66 -4 7 C-4.66 5.68 -5.32 4.36 -6 3 C-3.525 3.495 -3.525 3.495 -1 4 C-0.67 2.68 -0.34 1.36 0 0 Z " fill="#BE631E" transform="translate(39,74)"/>
<path d="M0 0 C2.31 0 4.62 0 7 0 C6.67 1.32 6.34 2.64 6 4 C6 3.34 6 2.68 6 2 C5.21625 2.474375 4.4325 2.94875 3.625 3.4375 C2.11051322 4.33898023 0.5764103 5.21179485 -1 6 C-0.67 4.02 -0.34 2.04 0 0 Z " fill="#D36417" transform="translate(46,65)"/>
<path d="M0 0 C0.99 0.99 1.98 1.98 3 3 C-1.62 3 -6.24 3 -11 3 C-10 1 -10 1 -8.3125 0.375 C-5.44181078 -0.09051717 -2.9038035 -0.24713221 0 0 Z " fill="#201F21" transform="translate(53,55)"/>
<path d="M0 0 C0.33 0.66 0.66 1.32 1 2 C1.66 2 2.32 2 3 2 C3.33 3.65 3.66 5.3 4 7 C1.03 6.505 1.03 6.505 -2 6 C-2 5.01 -2 4.02 -2 3 C-1.34 3 -0.68 3 0 3 C0 2.01 0 1.02 0 0 Z " fill="#DFD7B5" transform="translate(13,43)"/>
<path d="M0 0 C0.99 0.33 1.98 0.66 3 1 C3.96070434 3.88211302 4.10581883 5.69850044 4.0625 8.6875 C4.05347656 9.49574219 4.04445313 10.30398437 4.03515625 11.13671875 C4.02355469 11.75160156 4.01195313 12.36648437 4 13 C3.67 13 3.34 13 3 13 C2.34 9.7 1.68 6.4 1 3 C0.34 3 -0.32 3 -1 3 C-0.67 2.01 -0.34 1.02 0 0 Z " fill="#484131" transform="translate(74,20)"/>
<path d="M0 0 C0.99 0 1.98 0 3 0 C3 2.31 3 4.62 3 7 C2.01 7.33 1.02 7.66 0 8 C0 5.36 0 2.72 0 0 Z " fill="#F29C2D" transform="translate(70,16)"/>
<path d="M0 0 C2.97 0.495 2.97 0.495 6 1 C6 1.99 6 2.98 6 4 C4.02 4 2.04 4 0 4 C0 2.68 0 1.36 0 0 Z " fill="#E06715" transform="translate(48,89)"/>
<path d="M0 0 C0.99 0 1.98 0 3 0 C3 1.98 3 3.96 3 6 C1.68 5.67 0.36 5.34 -1 5 C-0.67 3.35 -0.34 1.7 0 0 Z " fill="#B7A788" transform="translate(14,71)"/>
<path d="M0 0 C0.33 0.99 0.66 1.98 1 3 C1.66 3 2.32 3 3 3 C2.67 3.99 2.34 4.98 2 6 C1.67 5.67 1.34 5.34 1 5 C0.67 5.66 0.34 6.32 0 7 C-0.99 7 -1.98 7 -3 7 C-1.125 1.125 -1.125 1.125 0 0 Z " fill="#CD7525" transform="translate(72,65)"/>
<path d="M0 0 C0.66 0 1.32 0 2 0 C2 2.31 2 4.62 2 7 C0.68 7 -0.64 7 -2 7 C-1.125 1.125 -1.125 1.125 0 0 Z " fill="#8D8572" transform="translate(15,30)"/>
<path d="M0 0 C1.32 0 2.64 0 4 0 C3.67 1.32 3.34 2.64 3 4 C1.68 4.33 0.36 4.66 -1 5 C-1.33 4.01 -1.66 3.02 -2 2 C-1.34 2 -0.68 2 0 2 C0 1.34 0 0.68 0 0 Z " fill="#E27F1F" transform="translate(54,78)"/>
<path d="M0 0 C0.66 0.33 1.32 0.66 2 1 C1 4 1 4 -0.875 5.1875 C-3 6 -3 6 -6 6 C-5.67 5.01 -5.34 4.02 -5 3 C-3.68 3 -2.36 3 -1 3 C-0.67 2.01 -0.34 1.02 0 0 Z " fill="#2D120C" transform="translate(63,54)"/>
<path d="M0 0 C0.99 0.33 1.98 0.66 3 1 C3 2.98 3 4.96 3 7 C2.01 7.33 1.02 7.66 0 8 C0 5.36 0 2.72 0 0 Z " fill="#6B6456" transform="translate(54,28)"/>
<path d="M0 0 C0.625 1.875 0.625 1.875 1 4 C0.34 4.66 -0.32 5.32 -1 6 C-1.99 6 -2.98 6 -4 6 C-3.6875 4.125 -3.6875 4.125 -3 2 C-2.01 1.34 -1.02 0.68 0 0 Z M-6 6 C-5.01 6.495 -5.01 6.495 -4 7 C-4.99 7.495 -4.99 7.495 -6 8 C-6 7.34 -6 6.68 -6 6 Z " fill="#F7F0D2" transform="translate(25,9)"/>
<path d="M0 0 C0.556875 0.391875 1.11375 0.78375 1.6875 1.1875 C-1.21850261 2.44414978 -3.10854584 3.1875 -6.3125 3.1875 C-6.3125 3.8475 -6.3125 4.5075 -6.3125 5.1875 C-7.3025 4.8575 -8.2925 4.5275 -9.3125 4.1875 C-8.6525 4.1875 -7.9925 4.1875 -7.3125 4.1875 C-7.3125 3.5275 -7.3125 2.8675 -7.3125 2.1875 C-3.09973404 -1.08909574 -3.09973404 -1.08909574 0 0 Z " fill="#FAF4CC" transform="translate(70.3125,92.8125)"/>
<path d="M0 0 C-0.33 1.32 -0.66 2.64 -1 4 C-2.65 4 -4.3 4 -6 4 C-6.33 3.01 -6.66 2.02 -7 1 C-2.25 0 -2.25 0 0 0 Z " fill="#723016" transform="translate(54,93)"/>
<path d="M0 0 C1.98 0.99 1.98 0.99 4 2 C4 2.99 4 3.98 4 5 C4.99 5.33 5.98 5.66 7 6 C7 6.66 7 7.32 7 8 C5.68 7.67 4.36 7.34 3 7 C3 5.68 3 4.36 3 3 C2.34 3 1.68 3 1 3 C0.67 2.01 0.34 1.02 0 0 Z " fill="#DDD5B4" transform="translate(18,80)"/>
<path d="M0 0 C0 3 0 3 -1 6 C-2.32 5.67 -3.64 5.34 -5 5 C-4.1875 3.0625 -4.1875 3.0625 -3 1 C-2.01 0.67 -1.02 0.34 0 0 Z " fill="#150804" transform="translate(71,75)"/>
<path d="M0 0 C0.33 0 0.66 0 1 0 C2.125 7.75 2.125 7.75 1 10 C0.01 10 -0.98 10 -2 10 C-1.34 6.7 -0.68 3.4 0 0 Z " fill="#712A0D" transform="translate(68,62)"/>
<path d="M0 0 C1.32 0.66 2.64 1.32 4 2 C4 3.65 4 5.3 4 7 C3.34 7 2.68 7 2 7 C2 6.01 2 5.02 2 4 C1.01 4 0.02 4 -1 4 C-0.67 2.68 -0.34 1.36 0 0 Z " fill="#D66E1C" transform="translate(26,66)"/>
<path d="M0 0 C0.66 0.99 1.32 1.98 2 3 C1.67 3.99 1.34 4.98 1 6 C0.34 6 -0.32 6 -1 6 C-1.33 6.99 -1.66 7.98 -2 9 C-3 6 -3 6 -1.5625 2.8125 C-1.046875 1.884375 -0.53125 0.95625 0 0 Z " fill="#B66A23" transform="translate(63,39)"/>
<path d="M0 0 C0.98120464 3.05263664 0.98120464 4.94736336 0 8 C-0.66 8 -1.32 8 -2 8 C-2.33 6.35 -2.66 4.7 -3 3 C-2.01 2.67 -1.02 2.34 0 2 C0 1.34 0 0.68 0 0 Z " fill="#B26828" transform="translate(32,29)"/>
<path d="M0 0 C0.66 0 1.32 0 2 0 C2.20086443 3.71599191 2.1519437 4.77208445 0 8 C-0.66 8 -1.32 8 -2 8 C-1.814375 7.38125 -1.62875 6.7625 -1.4375 6.125 C-0.76313824 3.95839822 -0.76313824 3.95839822 -2 2 C-1.34 2 -0.68 2 0 2 C0 1.34 0 0.68 0 0 Z " fill="#706B5B" transform="translate(24,14)"/>
<path d="M0 0 C1.65 0 3.3 0 5 0 C4.25 1.9375 4.25 1.9375 3 4 C0.875 4.75 0.875 4.75 -1 5 C-0.67 3.35 -0.34 1.7 0 0 Z " fill="#1A1818" transform="translate(33,8)"/>
<path d="M0 0 C1.98 0.99 3.96 1.98 6 3 C6 3.66 6 4.32 6 5 C3.69 4.67 1.38 4.34 -1 4 C-0.67 2.68 -0.34 1.36 0 0 Z " fill="#696355" transform="translate(67,8)"/>
<path d="M0 0 C4.75 0.75 4.75 0.75 7 3 C6.67 3.99 6.34 4.98 6 6 C6 5.34 6 4.68 6 4 C4.35 3.67 2.7 3.34 1 3 C0.67 2.01 0.34 1.02 0 0 Z " fill="#C9AC80" transform="translate(54,5)"/>
<path d="M0 0 C0 1.65 0 3.3 0 5 C-1.32 5.33 -2.64 5.66 -4 6 C-4.33 5.34 -4.66 4.68 -5 4 C-1.125 0 -1.125 0 0 0 Z " fill="#B15423" transform="translate(61,84)"/>
<path d="M0 0 C0 0.99 0 1.98 0 3 C-0.66 3 -1.32 3 -2 3 C-2 3.66 -2 4.32 -2 5 C-2.99 4.67 -3.98 4.34 -5 4 C-5 3.01 -5 2.02 -5 1 C-3 0 -3 0 0 0 Z " fill="#8B6747" transform="translate(14,76)"/>
<path d="M0 0 C0 1.98 0 3.96 0 6 C-0.99 6 -1.98 6 -3 6 C-3.33 4.68 -3.66 3.36 -4 2 C-1 0 -1 0 0 0 Z " fill="#1C1712" transform="translate(13,70)"/>
<path d="M0 0 C0.99 0.33 1.98 0.66 3 1 C3 2.65 3 4.3 3 6 C2.34 6 1.68 6 1 6 C1 6.99 1 7.98 1 9 C0.34 8.67 -0.32 8.34 -1 8 C-0.67 5.36 -0.34 2.72 0 0 Z " fill="#A25325" transform="translate(86,55)"/>
<path d="M0 0 C0 1.98 0 3.96 0 6 C-1.32 6 -2.64 6 -4 6 C-3.625 3.5625 -3.625 3.5625 -3 1 C-1 0 -1 0 0 0 Z " fill="#37372E" transform="translate(76,22)"/>
<path d="M0 0 C0.33 0.66 0.66 1.32 1 2 C1.99 2.33 2.98 2.66 4 3 C4.33 4.65 4.66 6.3 5 8 C4.360625 7.67 3.72125 7.34 3.0625 7 C1.23205433 5.92728775 1.23205433 5.92728775 0 6 C0 4.02 0 2.04 0 0 Z " fill="#91825E" transform="translate(73,15)"/>
<path d="M0 0 C2.475 0.495 2.475 0.495 5 1 C5 1.99 5 2.98 5 4 C5.66 4.33 6.32 4.66 7 5 C5.35 5 3.7 5 2 5 C1.34 3.35 0.68 1.7 0 0 Z " fill="#924F28" transform="translate(32,88)"/>
<path d="M0 0 C2.31 0.33 4.62 0.66 7 1 C7 1.33 7 1.66 7 2 C5.576875 2.185625 5.576875 2.185625 4.125 2.375 C0.91332809 2.71687177 0.91332809 2.71687177 -1 5 C-0.67 3.35 -0.34 1.7 0 0 Z " fill="#F9F1CA" transform="translate(80,82)"/>
<path d="M0 0 C0.99 0 1.98 0 3 0 C1.86695008 3.39914975 0.87481525 4.05254451 -2 6 C-2.66 5.01 -3.32 4.02 -4 3 C-3.01 3 -2.02 3 -1 3 C-0.67 2.01 -0.34 1.02 0 0 Z " fill="#924E25" transform="translate(66,82)"/>
<path d="M0 0 C0.66 0.33 1.32 0.66 2 1 C1.3125 2.9375 1.3125 2.9375 0 5 C-2.625 5.75 -2.625 5.75 -5 6 C-3.35 4.02 -1.7 2.04 0 0 Z " fill="#FBF0CA" transform="translate(94,77)"/>
<path d="M0 0 C0.99 0.33 1.98 0.66 3 1 C3 2.65 3 4.3 3 6 C2.01 6 1.02 6 0 6 C0 4.02 0 2.04 0 0 Z " fill="#BEB090" transform="translate(84,71)"/>
<path d="M0 0 C1.98 0.66 3.96 1.32 6 2 C6 2.66 6 3.32 6 4 C6.66 4.33 7.32 4.66 8 5 C5.125 4.75 5.125 4.75 2 4 C0.625 1.9375 0.625 1.9375 0 0 Z " fill="#5F5A4E" transform="translate(20,44)"/>
<path d="M0 0 C0.66 0.99 1.32 1.98 2 3 C1.01 3.33 0.02 3.66 -1 4 C-2.20882096 6.00016466 -2.20882096 6.00016466 -3 8 C-3.33 7.34 -3.66 6.68 -4 6 C-2.68 4.02 -1.36 2.04 0 0 Z " fill="#B1682F" transform="translate(75,38)"/>
<path d="M0 0 C1.98 0.99 1.98 0.99 4 2 C4 4.31 4 6.62 4 9 C1.49701566 6.06171403 0.53069061 3.82097239 0 0 Z " fill="#5E5A4E" transform="translate(41,29)"/>
<path d="M0 0 C1.98 0.99 1.98 0.99 4 2 C3.34 3.65 2.68 5.3 2 7 C1.34 6.67 0.68 6.34 0 6 C0 4.02 0 2.04 0 0 Z " fill="#DEA653" transform="translate(67,28)"/>
<path d="M0 0 C1.76462683 3.08809695 2 4.23312136 2 8 C1.01 8 0.02 8 -1 8 C-0.67 5.36 -0.34 2.72 0 0 Z " fill="#F4D97C" transform="translate(29,21)"/>
<path d="M0 0 C-0.28151087 1.31471568 -0.57553339 2.62675767 -0.875 3.9375 C-1.03742187 4.66839844 -1.19984375 5.39929688 -1.3671875 6.15234375 C-2 8 -2 8 -4 9 C-3.814375 8.05125 -3.62875 7.1025 -3.4375 6.125 C-2.71313368 3.10131207 -2.71313368 3.10131207 -4 1 C-2 0 -2 0 0 0 Z " fill="#D6CDB3" transform="translate(18,22)"/>
<path d="M0 0 C0.66 0.33 1.32 0.66 2 1 C0.35 2.98 -1.3 4.96 -3 7 C-3.33 5.68 -3.66 4.36 -4 3 C-2.68 2.01 -1.36 1.02 0 0 Z " fill="#D4B281" transform="translate(43,5)"/>
</svg>
